<svg width="247" height="186" viewBox="0 0 247 186" fill="none" xmlns="http://www.w3.org/2000/svg">
<path d="M233.149 116.419C233.002 111.025 233.421 101.825 228.692 98.0374C224.537 94.7118 221.306 99.2251 220.14 102.866C217.316 111.698 218.642 121.438 218.65 130.555C218.65 130.693 218.65 130.831 218.65 130.987C218.43 137.698 217.622 144.959 218.357 151.657C218.357 151.657 217.635 144.946 212.366 147.822C207.097 150.699 215.001 165.793 215.001 165.793C215.001 165.793 208.773 161.241 205.896 165.076C203.02 168.912 209.49 173.222 209.49 173.222C209.49 173.222 203.499 171.546 203.499 173.222C203.499 174.898 205.417 176.336 210.928 177.057H240.634C240.634 177.057 245.428 174.418 244.469 171.546C243.51 168.674 238.474 170.328 238.474 170.328C238.474 170.328 246.145 160.982 245.665 156.909C245.186 152.836 235.36 157.631 235.36 157.631C235.36 157.631 243.026 138.221 241.588 129.596C240.457 122.802 235.183 127.437 232.311 130.063C232.987 125.548 233.268 120.983 233.149 116.419Z" fill="#92E3A9" stroke="white" stroke-linecap="round" stroke-linejoin="round"/>
<path opacity="0.5" d="M233.149 116.419C233.002 111.025 233.421 101.825 228.692 98.0374C224.537 94.7118 221.306 99.2251 220.14 102.866C217.316 111.698 218.642 121.438 218.65 130.555C218.65 130.693 218.65 130.831 218.65 130.987C218.43 137.698 217.622 144.959 218.357 151.657C218.357 151.657 217.635 144.946 212.366 147.822C207.097 150.699 215.001 165.793 215.001 165.793C215.001 165.793 208.773 161.241 205.896 165.076C203.02 168.912 209.49 173.222 209.49 173.222C209.49 173.222 203.499 171.546 203.499 173.222C203.499 174.898 205.417 176.336 210.928 177.057H240.634C240.634 177.057 245.428 174.418 244.469 171.546C243.51 168.674 238.474 170.328 238.474 170.328C238.474 170.328 246.145 160.982 245.665 156.909C245.186 152.836 235.36 157.631 235.36 157.631C235.36 157.631 243.026 138.221 241.588 129.596C240.457 122.802 235.183 127.437 232.311 130.063C232.987 125.548 233.268 120.983 233.149 116.419Z" fill="white"/>
<path d="M223.617 176.798L225.776 110.904" stroke="white" stroke-linecap="round" stroke-linejoin="round"/>
<path d="M224.818 149.243L236.077 138.7" stroke="white" stroke-linecap="round" stroke-linejoin="round"/>
<path d="M230.087 144.449L232.484 137.742" stroke="white" stroke-linecap="round" stroke-linejoin="round"/>
<path d="M215.471 157.389L224.096 166.735" stroke="white" stroke-linecap="round" stroke-linejoin="round"/>
<path d="M238.474 162.662L224.096 170.091" stroke="white" stroke-linecap="round" stroke-linejoin="round"/>
<path d="M230.808 166.972L236.077 166.735" stroke="white" stroke-linecap="round" stroke-linejoin="round"/>
<path d="M223.617 176.798L225.776 110.904" stroke="#92E3A9" stroke-linecap="round" stroke-linejoin="round"/>
<path d="M224.818 149.243L236.077 138.7" stroke="#92E3A9" stroke-linecap="round" stroke-linejoin="round"/>
<path d="M230.087 144.449L232.484 137.742" stroke="#92E3A9" stroke-linecap="round" stroke-linejoin="round"/>
<path d="M215.471 157.389L224.096 166.735" stroke="#92E3A9" stroke-linecap="round" stroke-linejoin="round"/>
<path d="M238.474 162.662L224.096 170.091" stroke="#92E3A9" stroke-linecap="round" stroke-linejoin="round"/>
<path d="M230.808 166.972L236.077 166.735" stroke="#92E3A9" stroke-linecap="round" stroke-linejoin="round"/>
<g opacity="0.8">
<path d="M223.617 176.798L225.776 110.904" stroke="white" stroke-linecap="round" stroke-linejoin="round"/>
<path d="M224.818 149.243L236.077 138.7" stroke="white" stroke-linecap="round" stroke-linejoin="round"/>
<path d="M230.087 144.449L232.484 137.742" stroke="white" stroke-linecap="round" stroke-linejoin="round"/>
<path d="M215.471 157.389L224.096 166.735" stroke="white" stroke-linecap="round" stroke-linejoin="round"/>
<path d="M238.474 162.662L224.096 170.091" stroke="white" stroke-linecap="round" stroke-linejoin="round"/>
<path d="M230.808 166.972L236.077 166.735" stroke="white" stroke-linecap="round" stroke-linejoin="round"/>
</g>
<path d="M182.457 163.483C182.457 170.181 187.765 175.615 187.765 175.615C187.765 175.615 193.073 170.181 193.073 163.483C193.073 156.784 187.765 151.351 187.765 151.351C187.765 151.351 182.457 156.78 182.457 163.483Z" fill="#92E3A9"/>
<path d="M178.777 173.818C181.369 176.725 185.748 177.04 185.748 177.04C185.748 177.04 185.96 172.639 183.386 169.732C180.812 166.826 176.415 166.51 176.415 166.51C176.415 166.51 176.199 170.911 178.777 173.818Z" fill="#92E3A9"/>
<path d="M192.304 169.633C189.596 172.419 189.614 176.824 189.614 176.824C189.614 176.824 194.015 176.707 196.718 173.917C199.422 171.127 199.414 166.726 199.414 166.726C199.414 166.726 195.008 166.843 192.304 169.633Z" fill="#92E3A9"/>
<g opacity="0.5">
<path d="M182.457 163.483C182.457 170.181 187.765 175.615 187.765 175.615C187.765 175.615 193.073 170.181 193.073 163.483C193.073 156.784 187.765 151.351 187.765 151.351C187.765 151.351 182.457 156.78 182.457 163.483Z" fill="white"/>
<path d="M187.765 175.615V151.351" stroke="white" stroke-linecap="round" stroke-linejoin="round"/>
<path d="M187.765 159.976L184.794 157.38" stroke="white" stroke-linecap="round" stroke-linejoin="round"/>
<path d="M187.813 163.984L191.493 158.654" stroke="white" stroke-linecap="round" stroke-linejoin="round"/>
<path d="M187.765 166.294L183.377 162.381" stroke="white" stroke-linecap="round" stroke-linejoin="round"/>
<path d="M187.813 169.408L192.153 165.543" stroke="white" stroke-linecap="round" stroke-linejoin="round"/>
<path d="M187.813 172.099L184.414 169.408" stroke="white" stroke-linecap="round" stroke-linejoin="round"/>
<path d="M178.777 173.818C181.369 176.725 185.748 177.04 185.748 177.04C185.748 177.04 185.96 172.639 183.386 169.732C180.812 166.826 176.415 166.51 176.415 166.51C176.415 166.51 176.199 170.911 178.777 173.818Z" fill="white"/>
<path d="M185.748 177.04L176.415 166.51" stroke="white" stroke-linecap="round" stroke-linejoin="round"/>
<path d="M179.732 170.255L177.443 170.272" stroke="white" stroke-linecap="round" stroke-linejoin="round"/>
<path d="M181.295 171.974L180.842 168.247" stroke="white" stroke-linecap="round" stroke-linejoin="round"/>
<path d="M182.164 172.997L178.756 172.984" stroke="white" stroke-linecap="round" stroke-linejoin="round"/>
<path d="M183.381 174.328L183.775 170.98" stroke="white" stroke-linecap="round" stroke-linejoin="round"/>
<path d="M184.418 175.494L181.909 175.636" stroke="white" stroke-linecap="round" stroke-linejoin="round"/>
<path d="M192.304 169.633C189.596 172.419 189.614 176.824 189.614 176.824C189.614 176.824 194.015 176.707 196.718 173.917C199.422 171.127 199.414 166.726 199.414 166.726C199.414 166.726 195.008 166.843 192.304 169.633Z" fill="white"/>
<path d="M189.614 176.824L199.414 166.726" stroke="white" stroke-linecap="round" stroke-linejoin="round"/>
<path d="M195.928 170.315L195.742 168.035" stroke="white" stroke-linecap="round" stroke-linejoin="round"/>
<path d="M194.33 172.004L198.014 171.27" stroke="white" stroke-linecap="round" stroke-linejoin="round"/>
<path d="M193.376 172.946L193.134 169.547" stroke="white" stroke-linecap="round" stroke-linejoin="round"/>
<path d="M192.136 174.259L195.505 174.405" stroke="white" stroke-linecap="round" stroke-linejoin="round"/>
<path d="M191.052 175.377L190.724 172.889" stroke="white" stroke-linecap="round" stroke-linejoin="round"/>
</g>
<path d="M187.765 175.615V151.351" stroke="#92E3A9" stroke-linecap="round" stroke-linejoin="round"/>
<path d="M187.765 159.976L184.794 157.38" stroke="#92E3A9" stroke-linecap="round" stroke-linejoin="round"/>
<path d="M187.813 163.984L191.493 158.654" stroke="#92E3A9" stroke-linecap="round" stroke-linejoin="round"/>
<path d="M187.765 166.294L183.377 162.381" stroke="#92E3A9" stroke-linecap="round" stroke-linejoin="round"/>
<path d="M187.813 169.408L192.153 165.543" stroke="#92E3A9" stroke-linecap="round" stroke-linejoin="round"/>
<path d="M187.813 172.099L184.414 169.408" stroke="#92E3A9" stroke-linecap="round" stroke-linejoin="round"/>
<g opacity="0.7">
<path d="M187.765 175.615V151.351" stroke="white" stroke-linecap="round" stroke-linejoin="round"/>
<path d="M187.765 159.976L184.794 157.38" stroke="white" stroke-linecap="round" stroke-linejoin="round"/>
<path d="M187.813 163.984L191.492 158.654" stroke="white" stroke-linecap="round" stroke-linejoin="round"/>
<path d="M187.765 166.294L183.377 162.381" stroke="white" stroke-linecap="round" stroke-linejoin="round"/>
<path d="M187.813 169.408L192.153 165.543" stroke="white" stroke-linecap="round" stroke-linejoin="round"/>
<path d="M187.813 172.099L184.414 169.408" stroke="white" stroke-linecap="round" stroke-linejoin="round"/>
</g>
<path d="M185.748 177.04L176.415 166.51" stroke="#92E3A9" stroke-linecap="round" stroke-linejoin="round"/>
<path d="M179.732 170.255L177.443 170.272" stroke="#92E3A9" stroke-linecap="round" stroke-linejoin="round"/>
<path d="M181.295 171.974L180.842 168.247" stroke="#92E3A9" stroke-linecap="round" stroke-linejoin="round"/>
<path d="M182.164 172.997L178.756 172.984" stroke="#92E3A9" stroke-linecap="round" stroke-linejoin="round"/>
<path d="M183.381 174.328L183.775 170.98" stroke="#92E3A9" stroke-linecap="round" stroke-linejoin="round"/>
<path d="M184.418 175.494L181.909 175.636" stroke="#92E3A9" stroke-linecap="round" stroke-linejoin="round"/>
<g opacity="0.7">
<path d="M185.748 177.04L176.415 166.51" stroke="white" stroke-linecap="round" stroke-linejoin="round"/>
<path d="M179.732 170.255L177.443 170.272" stroke="white" stroke-linecap="round" stroke-linejoin="round"/>
<path d="M181.295 171.974L180.842 168.247" stroke="white" stroke-linecap="round" stroke-linejoin="round"/>
<path d="M182.164 172.997L178.756 172.984" stroke="white" stroke-linecap="round" stroke-linejoin="round"/>
<path d="M183.381 174.328L183.775 170.98" stroke="white" stroke-linecap="round" stroke-linejoin="round"/>
<path d="M184.418 175.494L181.909 175.636" stroke="white" stroke-linecap="round" stroke-linejoin="round"/>
</g>
<path d="M189.614 176.824L199.413 166.726" stroke="#92E3A9" stroke-linecap="round" stroke-linejoin="round"/>
<path d="M195.928 170.315L195.742 168.035" stroke="#92E3A9" stroke-linecap="round" stroke-linejoin="round"/>
<path d="M194.33 172.004L198.014 171.27" stroke="#92E3A9" stroke-linecap="round" stroke-linejoin="round"/>
<path d="M193.376 172.946L193.134 169.547" stroke="#92E3A9" stroke-linecap="round" stroke-linejoin="round"/>
<path d="M192.136 174.259L195.505 174.405" stroke="#92E3A9" stroke-linecap="round" stroke-linejoin="round"/>
<path d="M191.052 175.377L190.724 172.889" stroke="#92E3A9" stroke-linecap="round" stroke-linejoin="round"/>
<g opacity="0.7">
<path d="M189.614 176.824L199.413 166.726" stroke="white" stroke-linecap="round" stroke-linejoin="round"/>
<path d="M195.928 170.315L195.742 168.035" stroke="white" stroke-linecap="round" stroke-linejoin="round"/>
<path d="M194.33 172.004L198.014 171.27" stroke="white" stroke-linecap="round" stroke-linejoin="round"/>
<path d="M193.376 172.946L193.134 169.547" stroke="white" stroke-linecap="round" stroke-linejoin="round"/>
<path d="M192.136 174.259L195.505 174.405" stroke="white" stroke-linecap="round" stroke-linejoin="round"/>
<path d="M191.052 175.377L190.724 172.889" stroke="white" stroke-linecap="round" stroke-linejoin="round"/>
</g>
<path d="M13.538 116.419C13.6805 111.025 13.2659 101.825 17.9951 98.0374C22.15 94.7118 25.3806 99.2251 26.5424 102.866C29.3713 111.698 28.0411 121.438 28.0367 130.555C28.0367 130.693 28.0367 130.831 28.0367 130.987C28.2613 137.698 29.0647 144.959 28.3348 151.657C28.3348 151.657 29.0517 144.946 34.3252 147.822C39.5986 150.699 31.6863 165.793 31.6863 165.793C31.6863 165.793 37.9186 161.241 40.795 165.076C43.6714 168.912 37.2102 173.205 37.2102 173.205C37.2102 173.205 43.2006 171.529 43.2006 173.205C43.2006 174.881 41.283 176.319 35.772 177.04H6.05318C6.05318 177.04 1.25913 174.401 2.21794 171.529C3.17675 168.657 8.20835 170.328 8.20835 170.328C8.20835 170.328 0.542177 160.982 1.02158 156.909C1.50099 152.836 11.3266 157.631 11.3266 157.631C11.3266 157.631 3.65615 138.221 5.09437 129.609C6.22594 122.815 11.5037 127.45 14.3715 130.076C13.6961 125.556 13.4172 120.987 13.538 116.419Z" fill="#92E3A9" stroke="white" stroke-linecap="round" stroke-linejoin="round"/>
<path opacity="0.5" d="M13.538 116.419C13.6805 111.025 13.2659 101.825 17.9951 98.0374C22.15 94.7118 25.3806 99.2251 26.5424 102.866C29.3713 111.698 28.0411 121.438 28.0367 130.555C28.0367 130.693 28.0367 130.831 28.0367 130.987C28.2613 137.698 29.0647 144.959 28.3348 151.657C28.3348 151.657 29.0517 144.946 34.3252 147.822C39.5986 150.699 31.6863 165.793 31.6863 165.793C31.6863 165.793 37.9186 161.241 40.795 165.076C43.6714 168.912 37.2102 173.205 37.2102 173.205C37.2102 173.205 43.2006 171.529 43.2006 173.205C43.2006 174.881 41.283 176.319 35.772 177.04H6.05318C6.05318 177.04 1.25913 174.401 2.21794 171.529C3.17675 168.657 8.20835 170.328 8.20835 170.328C8.20835 170.328 0.542177 160.982 1.02158 156.909C1.50099 152.836 11.3266 157.631 11.3266 157.631C11.3266 157.631 3.65615 138.221 5.09437 129.609C6.22594 122.815 11.5037 127.45 14.3715 130.076C13.6961 125.556 13.4172 120.987 13.538 116.419Z" fill="white"/>
<path d="M23.0656 176.798L20.9104 110.904" stroke="white" stroke-linecap="round" stroke-linejoin="round"/>
<path d="M21.8693 149.243L10.6054 138.7" stroke="white" stroke-linecap="round" stroke-linejoin="round"/>
<path d="M16.5958 144.449L14.1988 137.742" stroke="white" stroke-linecap="round" stroke-linejoin="round"/>
<path d="M31.2112 157.389L22.5862 166.735" stroke="white" stroke-linecap="round" stroke-linejoin="round"/>
<path d="M8.20835 162.662L22.5862 170.091" stroke="white" stroke-linecap="round" stroke-linejoin="round"/>
<path d="M15.8788 166.972L10.6054 166.735" stroke="white" stroke-linecap="round" stroke-linejoin="round"/>
<path d="M23.0656 176.798L20.9104 110.904" stroke="#92E3A9" stroke-linecap="round" stroke-linejoin="round"/>
<path d="M21.8693 149.243L10.6054 138.7" stroke="#92E3A9" stroke-linecap="round" stroke-linejoin="round"/>
<path d="M16.5958 144.449L14.1988 137.742" stroke="#92E3A9" stroke-linecap="round" stroke-linejoin="round"/>
<path d="M31.2112 157.389L22.5862 166.735" stroke="#92E3A9" stroke-linecap="round" stroke-linejoin="round"/>
<path d="M8.20835 162.662L22.5862 170.091" stroke="#92E3A9" stroke-linecap="round" stroke-linejoin="round"/>
<path d="M15.8788 166.972L10.6054 166.735" stroke="#92E3A9" stroke-linecap="round" stroke-linejoin="round"/>
<g opacity="0.8">
<path d="M23.0656 176.798L20.9104 110.904" stroke="white" stroke-linecap="round" stroke-linejoin="round"/>
<path d="M21.8693 149.243L10.6054 138.7" stroke="white" stroke-linecap="round" stroke-linejoin="round"/>
<path d="M16.5958 144.449L14.1988 137.742" stroke="white" stroke-linecap="round" stroke-linejoin="round"/>
<path d="M31.2112 157.389L22.5862 166.735" stroke="white" stroke-linecap="round" stroke-linejoin="round"/>
<path d="M8.20835 162.662L22.5862 170.091" stroke="white" stroke-linecap="round" stroke-linejoin="round"/>
<path d="M15.8788 166.972L10.6054 166.735" stroke="white" stroke-linecap="round" stroke-linejoin="round"/>
</g>
<path d="M65.0935 163.483C65.0935 170.181 59.7855 175.615 59.7855 175.615C59.7855 175.615 54.4861 170.181 54.4861 163.483C54.4861 156.784 59.7941 151.351 59.7941 151.351C59.7941 151.351 65.0935 156.78 65.0935 163.483Z" fill="#92E3A9"/>
<path d="M68.769 173.818C66.1776 176.725 61.7981 177.04 61.7981 177.04C61.7981 177.04 61.5865 172.639 64.1649 169.732C66.7434 166.826 71.1358 166.51 71.1358 166.51C71.1358 166.51 71.3301 170.911 68.769 173.818Z" fill="#92E3A9"/>
<path d="M55.2463 169.633C57.9499 172.419 57.937 176.824 57.937 176.824C57.937 176.824 53.536 176.707 50.828 173.917C48.12 171.127 48.1372 166.726 48.1372 166.726C48.1372 166.726 52.5383 166.843 55.2463 169.633Z" fill="#92E3A9"/>
<g opacity="0.5">
<path d="M65.0935 163.483C65.0935 170.181 59.7855 175.615 59.7855 175.615C59.7855 175.615 54.4861 170.181 54.4861 163.483C54.4861 156.784 59.7941 151.351 59.7941 151.351C59.7941 151.351 65.0935 156.78 65.0935 163.483Z" fill="white"/>
<path d="M59.7855 175.615V151.351" stroke="white" stroke-linecap="round" stroke-linejoin="round"/>
<path d="M59.7855 159.976L62.7569 157.38" stroke="white" stroke-linecap="round" stroke-linejoin="round"/>
<path d="M59.738 163.984L56.0582 158.654" stroke="white" stroke-linecap="round" stroke-linejoin="round"/>
<path d="M59.7855 166.294L64.1736 162.381" stroke="white" stroke-linecap="round" stroke-linejoin="round"/>
<path d="M59.738 169.408L55.3974 165.543" stroke="white" stroke-linecap="round" stroke-linejoin="round"/>
<path d="M59.738 172.099L63.1327 169.408" stroke="white" stroke-linecap="round" stroke-linejoin="round"/>
<path d="M68.769 173.818C66.1776 176.725 61.7981 177.04 61.7981 177.04C61.7981 177.04 61.5865 172.639 64.1649 169.732C66.7434 166.826 71.1358 166.51 71.1358 166.51C71.1358 166.51 71.3301 170.911 68.769 173.818Z" fill="white"/>
<path d="M61.7981 177.04L71.1358 166.51" stroke="white" stroke-linecap="round" stroke-linejoin="round"/>
<path d="M67.8188 170.255L70.1035 170.272" stroke="white" stroke-linecap="round" stroke-linejoin="round"/>
<path d="M66.2553 171.974L66.7088 168.247" stroke="white" stroke-linecap="round" stroke-linejoin="round"/>
<path d="M65.3829 172.997L68.7949 172.984" stroke="white" stroke-linecap="round" stroke-linejoin="round"/>
<path d="M64.1649 174.328L63.7719 170.98" stroke="white" stroke-linecap="round" stroke-linejoin="round"/>
<path d="M63.1327 175.494L65.642 175.636" stroke="white" stroke-linecap="round" stroke-linejoin="round"/>
<path d="M55.2463 169.633C57.9499 172.419 57.937 176.824 57.937 176.824C57.937 176.824 53.536 176.707 50.828 173.917C48.12 171.127 48.1372 166.726 48.1372 166.726C48.1372 166.726 52.5383 166.843 55.2463 169.633Z" fill="white"/>
<path d="M57.937 176.824L48.1372 166.726" stroke="white" stroke-linecap="round" stroke-linejoin="round"/>
<path d="M51.6183 170.315L51.8084 168.035" stroke="white" stroke-linecap="round" stroke-linejoin="round"/>
<path d="M53.2207 172.004L49.5366 171.27" stroke="white" stroke-linecap="round" stroke-linejoin="round"/>
<path d="M54.1708 172.946L54.417 169.547" stroke="white" stroke-linecap="round" stroke-linejoin="round"/>
<path d="M55.4104 174.259L52.0416 174.405" stroke="white" stroke-linecap="round" stroke-linejoin="round"/>
<path d="M56.4988 175.377L56.8227 172.889" stroke="white" stroke-linecap="round" stroke-linejoin="round"/>
</g>
<path d="M59.7855 175.615V151.351" stroke="#92E3A9" stroke-linecap="round" stroke-linejoin="round"/>
<path d="M59.7855 159.976L62.757 157.38" stroke="#92E3A9" stroke-linecap="round" stroke-linejoin="round"/>
<path d="M59.738 163.984L56.0582 158.654" stroke="#92E3A9" stroke-linecap="round" stroke-linejoin="round"/>
<path d="M59.7855 166.294L64.1736 162.381" stroke="#92E3A9" stroke-linecap="round" stroke-linejoin="round"/>
<path d="M59.738 169.408L55.3974 165.543" stroke="#92E3A9" stroke-linecap="round" stroke-linejoin="round"/>
<path d="M59.738 172.099L63.1327 169.408" stroke="#92E3A9" stroke-linecap="round" stroke-linejoin="round"/>
<g opacity="0.7">
<path d="M59.7855 175.615V151.351" stroke="white" stroke-linecap="round" stroke-linejoin="round"/>
<path d="M59.7855 159.976L62.757 157.38" stroke="white" stroke-linecap="round" stroke-linejoin="round"/>
<path d="M59.738 163.984L56.0582 158.654" stroke="white" stroke-linecap="round" stroke-linejoin="round"/>
<path d="M59.7855 166.294L64.1736 162.381" stroke="white" stroke-linecap="round" stroke-linejoin="round"/>
<path d="M59.738 169.408L55.3974 165.543" stroke="white" stroke-linecap="round" stroke-linejoin="round"/>
<path d="M59.738 172.099L63.1327 169.408" stroke="white" stroke-linecap="round" stroke-linejoin="round"/>
</g>
<path d="M61.7981 177.04L71.1358 166.51" stroke="#92E3A9" stroke-linecap="round" stroke-linejoin="round"/>
<path d="M67.8188 170.255L70.1035 170.272" stroke="#92E3A9" stroke-linecap="round" stroke-linejoin="round"/>
<path d="M66.2553 171.974L66.7088 168.247" stroke="#92E3A9" stroke-linecap="round" stroke-linejoin="round"/>
<path d="M65.3829 172.997L68.7949 172.984" stroke="#92E3A9" stroke-linecap="round" stroke-linejoin="round"/>
<path d="M64.1649 174.328L63.7719 170.98" stroke="#92E3A9" stroke-linecap="round" stroke-linejoin="round"/>
<path d="M63.1327 175.494L65.642 175.636" stroke="#92E3A9" stroke-linecap="round" stroke-linejoin="round"/>
<g opacity="0.7">
<path d="M61.7981 177.04L71.1358 166.51" stroke="white" stroke-linecap="round" stroke-linejoin="round"/>
<path d="M67.8188 170.255L70.1035 170.272" stroke="white" stroke-linecap="round" stroke-linejoin="round"/>
<path d="M66.2553 171.974L66.7088 168.247" stroke="white" stroke-linecap="round" stroke-linejoin="round"/>
<path d="M65.3829 172.997L68.7949 172.984" stroke="white" stroke-linecap="round" stroke-linejoin="round"/>
<path d="M64.1649 174.328L63.7719 170.98" stroke="white" stroke-linecap="round" stroke-linejoin="round"/>
<path d="M63.1327 175.494L65.642 175.636" stroke="white" stroke-linecap="round" stroke-linejoin="round"/>
</g>
<path d="M57.937 176.824L48.1372 166.726" stroke="#92E3A9" stroke-linecap="round" stroke-linejoin="round"/>
<path d="M51.6183 170.315L51.8084 168.035" stroke="#92E3A9" stroke-linecap="round" stroke-linejoin="round"/>
<path d="M53.2207 172.004L49.5366 171.27" stroke="#92E3A9" stroke-linecap="round" stroke-linejoin="round"/>
<path d="M54.1708 172.946L54.417 169.547" stroke="#92E3A9" stroke-linecap="round" stroke-linejoin="round"/>
<path d="M55.4104 174.259L52.0416 174.405" stroke="#92E3A9" stroke-linecap="round" stroke-linejoin="round"/>
<path d="M56.4988 175.377L56.8227 172.889" stroke="#92E3A9" stroke-linecap="round" stroke-linejoin="round"/>
<g opacity="0.7">
<path d="M57.937 176.824L48.1372 166.726" stroke="white" stroke-linecap="round" stroke-linejoin="round"/>
<path d="M51.6183 170.315L51.8084 168.035" stroke="white" stroke-linecap="round" stroke-linejoin="round"/>
<path d="M53.2207 172.004L49.5366 171.27" stroke="white" stroke-linecap="round" stroke-linejoin="round"/>
<path d="M54.1708 172.946L54.417 169.547" stroke="white" stroke-linecap="round" stroke-linejoin="round"/>
<path d="M55.4104 174.259L52.0416 174.405" stroke="white" stroke-linecap="round" stroke-linejoin="round"/>
<path d="M56.4988 175.377L56.8227 172.889" stroke="white" stroke-linecap="round" stroke-linejoin="round"/>
</g>
<path d="M184.651 48.6802H67.8965C67.8616 48.6808 67.8269 48.6744 67.7944 48.6614C67.7619 48.6484 67.7324 48.6291 67.7074 48.6046C67.6825 48.58 67.6627 48.5508 67.6492 48.5186C67.6357 48.4863 67.6287 48.4517 67.6288 48.4167C67.6288 48.3457 67.657 48.2776 67.7072 48.2274C67.7574 48.1772 67.8255 48.149 67.8965 48.149H184.651C184.686 48.1489 184.721 48.1559 184.753 48.1694C184.785 48.1829 184.815 48.2027 184.839 48.2276C184.864 48.2526 184.883 48.2821 184.896 48.3146C184.909 48.347 184.915 48.3818 184.915 48.4167C184.915 48.4866 184.887 48.5536 184.838 48.603C184.788 48.6524 184.721 48.6802 184.651 48.6802Z" fill="#92E3A9"/>
<g opacity="0.3">
<path d="M184.651 48.6802H67.8965C67.8616 48.6808 67.8269 48.6744 67.7944 48.6614C67.7619 48.6484 67.7324 48.6291 67.7074 48.6046C67.6825 48.58 67.6627 48.5508 67.6492 48.5186C67.6357 48.4863 67.6287 48.4517 67.6288 48.4167C67.6288 48.3457 67.657 48.2776 67.7072 48.2274C67.7574 48.1772 67.8255 48.149 67.8965 48.149H184.651C184.686 48.1489 184.721 48.1559 184.753 48.1694C184.785 48.1829 184.815 48.2027 184.839 48.2276C184.864 48.2526 184.883 48.2821 184.896 48.3146C184.909 48.347 184.915 48.3818 184.915 48.4167C184.915 48.4866 184.887 48.5536 184.838 48.603C184.788 48.6524 184.721 48.6802 184.651 48.6802Z" fill="white"/>
</g>
<path d="M184.418 94.9882H67.6633C67.6283 94.9888 67.5936 94.9824 67.5612 94.9694C67.5287 94.9564 67.4991 94.9371 67.4742 94.9126C67.4493 94.8881 67.4295 94.8588 67.416 94.8266C67.4025 94.7943 67.3955 94.7597 67.3955 94.7247C67.3955 94.6537 67.4237 94.5856 67.474 94.5354C67.5242 94.4852 67.5923 94.457 67.6633 94.457H184.418C184.453 94.4569 184.488 94.4639 184.52 94.4774C184.552 94.4909 184.581 94.5107 184.606 94.5356C184.63 94.5606 184.65 94.5901 184.663 94.6226C184.676 94.6551 184.682 94.6898 184.682 94.7247C184.682 94.7593 184.675 94.7936 184.661 94.8256C184.648 94.8575 184.629 94.8866 184.604 94.911C184.58 94.9355 184.551 94.9549 184.519 94.9681C184.487 94.9814 184.453 94.9882 184.418 94.9882Z" fill="#92E3A9"/>
<g opacity="0.3">
<path d="M184.418 94.9882H67.6633C67.6283 94.9888 67.5936 94.9824 67.5612 94.9694C67.5287 94.9564 67.4991 94.9371 67.4742 94.9126C67.4493 94.8881 67.4295 94.8588 67.416 94.8266C67.4025 94.7943 67.3955 94.7597 67.3955 94.7247C67.3955 94.6537 67.4237 94.5856 67.474 94.5354C67.5242 94.4852 67.5923 94.457 67.6633 94.457H184.418C184.453 94.4569 184.488 94.4639 184.52 94.4774C184.552 94.4909 184.581 94.5107 184.606 94.5356C184.63 94.5606 184.65 94.5901 184.663 94.6226C184.676 94.6551 184.682 94.6898 184.682 94.7247C184.682 94.7593 184.675 94.7936 184.661 94.8256C184.648 94.8575 184.629 94.8866 184.604 94.911C184.58 94.9355 184.551 94.9549 184.519 94.9681C184.487 94.9814 184.453 94.9882 184.418 94.9882Z" fill="white"/>
</g>
<path d="M184.418 132.844H67.6633C67.5923 132.844 67.5242 132.816 67.474 132.766C67.4237 132.715 67.3955 132.647 67.3955 132.576C67.3955 132.541 67.4025 132.507 67.416 132.474C67.4295 132.442 67.4493 132.413 67.4742 132.388C67.4991 132.364 67.5287 132.345 67.5612 132.332C67.5936 132.319 67.6283 132.312 67.6633 132.313H184.418C184.453 132.313 184.487 132.32 184.519 132.333C184.551 132.346 184.58 132.365 184.604 132.39C184.629 132.414 184.648 132.443 184.661 132.475C184.675 132.507 184.682 132.542 184.682 132.576C184.682 132.611 184.676 132.646 184.663 132.678C184.65 132.711 184.63 132.74 184.606 132.765C184.581 132.79 184.552 132.81 184.52 132.823C184.488 132.837 184.453 132.844 184.418 132.844Z" fill="#92E3A9"/>
<g opacity="0.3">
<path d="M184.418 132.844H67.6633C67.5923 132.844 67.5242 132.816 67.474 132.766C67.4237 132.715 67.3955 132.647 67.3955 132.576C67.3955 132.541 67.4025 132.507 67.416 132.474C67.4295 132.442 67.4493 132.413 67.4742 132.388C67.4991 132.364 67.5287 132.345 67.5612 132.332C67.5936 132.319 67.6283 132.312 67.6633 132.313H184.418C184.453 132.313 184.487 132.32 184.519 132.333C184.551 132.346 184.58 132.365 184.604 132.39C184.629 132.414 184.648 132.443 184.661 132.475C184.675 132.507 184.682 132.542 184.682 132.576C184.682 132.611 184.676 132.646 184.663 132.678C184.65 132.711 184.63 132.74 184.606 132.765C184.581 132.79 184.552 132.81 184.52 132.823C184.488 132.837 184.453 132.844 184.418 132.844Z" fill="white"/>
</g>
<path d="M92.4844 139.249V178.647" stroke="#263238" stroke-width="0.265171" stroke-miterlimit="10"/>
<path d="M98.112 139.249V178.647" stroke="#263238" stroke-width="0.265171" stroke-miterlimit="10"/>
<path d="M103.74 139.249V178.647" stroke="#263238" stroke-width="0.265171" stroke-miterlimit="10"/>
<path d="M109.367 139.249V178.647" stroke="#263238" stroke-width="0.265171" stroke-miterlimit="10"/>
<path d="M114.995 139.249V178.647" stroke="#263238" stroke-width="0.265171" stroke-miterlimit="10"/>
<path d="M120.623 139.249V178.647" stroke="#263238" stroke-width="0.265171" stroke-miterlimit="10"/>
<path d="M126.25 139.249V178.647" stroke="#263238" stroke-width="0.265171" stroke-miterlimit="10"/>
<path d="M131.878 139.249V178.647" stroke="#263238" stroke-width="0.265171" stroke-miterlimit="10"/>
<path d="M137.505 139.249V178.647" stroke="#263238" stroke-width="0.265171" stroke-miterlimit="10"/>
<path d="M143.133 139.249V178.647" stroke="#263238" stroke-width="0.265171" stroke-miterlimit="10"/>
<path d="M148.761 139.249V178.647" stroke="#263238" stroke-width="0.265171" stroke-miterlimit="10"/>
<path d="M154.388 139.249V178.647" stroke="#263238" stroke-width="0.265171" stroke-miterlimit="10"/>
<path d="M92.7652 142.907H154.107" stroke="#263238" stroke-width="0.265171" stroke-miterlimit="10"/>
<path d="M92.7652 148.254H154.107" stroke="#263238" stroke-width="0.265171" stroke-miterlimit="10"/>
<path d="M92.7652 153.601H154.107" stroke="#263238" stroke-width="0.265171" stroke-miterlimit="10"/>
<path d="M92.7652 158.948H154.107" stroke="#263238" stroke-width="0.265171" stroke-miterlimit="10"/>
<path d="M92.7652 164.295H154.107" stroke="#263238" stroke-width="0.265171" stroke-miterlimit="10"/>
<path d="M92.7652 169.642H154.107" stroke="#263238" stroke-width="0.265171" stroke-miterlimit="10"/>
<path d="M92.7652 174.988H154.107" stroke="#263238" stroke-width="0.265171" stroke-miterlimit="10"/>
<path d="M105.653 153.07L97.421 178.448H114.662L106.426 153.07C106.4 152.988 106.348 152.916 106.279 152.866C106.209 152.815 106.125 152.788 106.04 152.788C105.954 152.788 105.87 152.815 105.8 152.866C105.731 152.916 105.679 152.988 105.653 153.07Z" fill="#92E3A9" stroke="#263238" stroke-width="1.06068" stroke-miterlimit="10"/>
<path d="M121.348 144.665L110.391 178.448H133.091L122.121 144.665C122.095 144.583 122.043 144.512 121.974 144.461C121.904 144.41 121.821 144.383 121.735 144.383C121.649 144.383 121.565 144.41 121.495 144.461C121.426 144.512 121.374 144.583 121.348 144.665Z" fill="#263238" stroke="#263238" stroke-width="1.06068" stroke-miterlimit="10"/>
<path d="M135.791 158.874L129.438 178.448H142.913L136.547 158.874C136.517 158.798 136.465 158.733 136.397 158.687C136.33 158.641 136.25 158.617 136.169 158.617C136.087 158.617 136.007 158.641 135.94 158.687C135.873 158.733 135.821 158.798 135.791 158.874Z" fill="#92E3A9" stroke="#263238" stroke-width="1.06068" stroke-miterlimit="10"/>
<path d="M144.493 165.595L140.326 178.448H149.434L145.267 165.595C145.24 165.513 145.189 165.441 145.119 165.391C145.05 165.34 144.966 165.313 144.88 165.313C144.794 165.313 144.71 165.34 144.641 165.391C144.571 165.441 144.52 165.513 144.493 165.595Z" fill="#263238" stroke="#263238" stroke-width="1.06068" stroke-miterlimit="10"/>
<path d="M91.7416 126.797C89.2721 126.797 86.858 126.065 84.8046 124.693C82.7513 123.321 81.1509 121.371 80.2059 119.09C79.2608 116.808 79.0136 114.297 79.4953 111.875C79.9771 109.453 81.1663 107.228 82.9125 105.482C84.6588 103.736 86.8836 102.547 89.3056 102.065C91.7277 101.583 94.2383 101.831 96.5198 102.776C98.8014 103.721 100.751 105.321 102.123 107.374C103.495 109.428 104.228 111.842 104.228 114.311C104.224 117.622 102.908 120.796 100.567 123.137C98.226 125.477 95.0521 126.794 91.7416 126.797ZM91.7416 105.492C89.9975 105.493 88.2927 106.011 86.843 106.98C85.3932 107.95 84.2635 109.328 83.5967 110.939C82.9298 112.551 82.7558 114.324 83.0965 116.034C83.4373 117.745 84.2776 119.316 85.5112 120.549C86.7448 121.782 88.3162 122.622 90.0269 122.961C91.7376 123.301 93.5106 123.126 95.1219 122.459C96.7332 121.791 98.1103 120.661 99.0792 119.211C100.048 117.76 100.565 116.055 100.565 114.311C100.563 111.972 99.6324 109.73 97.9781 108.076C96.3237 106.422 94.0807 105.493 91.7416 105.492Z" fill="#263238" stroke="#263238" stroke-width="1.06068" stroke-miterlimit="10"/>
<path d="M91.7416 126.797C90.0564 126.803 88.3879 126.464 86.8381 125.802C85.2883 125.141 83.8897 124.17 82.7279 122.949L85.3754 120.414C86.1957 121.276 87.1835 121.962 88.2782 122.429C89.3728 122.896 90.5514 123.135 91.7416 123.131C92.8997 123.131 94.0466 122.902 95.1166 122.459C96.1866 122.016 97.1588 121.366 97.9778 120.547C98.7967 119.729 99.4464 118.756 99.8896 117.686C100.333 116.616 100.561 115.469 100.561 114.311C100.561 113.153 100.333 112.006 99.8896 110.936C99.4464 109.866 98.7967 108.894 97.9778 108.075C97.1588 107.256 96.1866 106.606 95.1166 106.163C94.0466 105.72 92.8997 105.492 91.7416 105.492V101.825C93.3813 101.825 95.0049 102.148 96.5198 102.776C98.0347 103.403 99.4112 104.323 100.571 105.482C101.73 106.642 102.65 108.018 103.277 109.533C103.905 111.048 104.228 112.672 104.228 114.311C104.228 115.951 103.905 117.575 103.277 119.089C102.65 120.604 101.73 121.981 100.571 123.14C99.4112 124.3 98.0347 125.219 96.5198 125.847C95.0049 126.474 93.3813 126.797 91.7416 126.797Z" fill="#92E3A9" stroke="#263238" stroke-width="1.06068" stroke-miterlimit="10"/>
<path d="M122.536 126.797C120.066 126.798 117.652 126.067 115.598 124.695C113.544 123.324 111.943 121.374 110.997 119.092C110.051 116.811 109.803 114.3 110.285 111.878C110.766 109.456 111.955 107.23 113.701 105.484C115.447 103.737 117.672 102.547 120.094 102.065C122.516 101.583 125.027 101.83 127.309 102.775C129.591 103.72 131.541 105.32 132.913 107.374C134.285 109.427 135.018 111.842 135.018 114.311C135.014 117.621 133.698 120.794 131.358 123.135C129.018 125.476 125.846 126.793 122.536 126.797ZM122.536 105.492C120.792 105.494 119.088 106.012 117.638 106.982C116.189 107.953 115.06 109.331 114.394 110.942C113.728 112.554 113.554 114.327 113.896 116.037C114.237 117.747 115.078 119.318 116.311 120.551C117.545 121.783 119.117 122.622 120.827 122.962C122.538 123.301 124.31 123.126 125.921 122.458C127.533 121.791 128.909 120.66 129.878 119.21C130.847 117.76 131.364 116.055 131.364 114.311C131.36 111.972 130.429 109.729 128.774 108.076C127.119 106.422 124.875 105.493 122.536 105.492Z" fill="#263238" stroke="#263238" stroke-width="1.06068" stroke-miterlimit="10"/>
<path d="M127.395 125.813L125.969 122.44C127.842 121.646 129.384 120.229 130.332 118.429C131.28 116.629 131.578 114.557 131.174 112.563C130.77 110.57 129.689 108.777 128.115 107.488C126.541 106.199 124.57 105.494 122.536 105.492V101.825C125.417 101.825 128.209 102.822 130.439 104.646C132.669 106.47 134.2 109.009 134.772 111.832C135.344 114.656 134.922 117.591 133.577 120.139C132.233 122.687 130.048 124.691 127.395 125.813Z" fill="#92E3A9" stroke="#263238" stroke-width="1.06068" stroke-miterlimit="10"/>
<path d="M153.326 126.797C150.856 126.797 148.442 126.065 146.389 124.693C144.336 123.321 142.735 121.371 141.79 119.089C140.845 116.808 140.598 114.297 141.08 111.875C141.561 109.453 142.751 107.228 144.497 105.482C146.243 103.736 148.468 102.547 150.89 102.065C153.312 101.583 155.822 101.831 158.104 102.776C160.386 103.721 162.336 105.321 163.708 107.374C165.08 109.428 165.812 111.842 165.812 114.311C165.808 117.622 164.492 120.796 162.151 123.137C159.81 125.477 156.636 126.794 153.326 126.797ZM153.326 105.492C151.581 105.492 149.876 106.009 148.426 106.978C146.976 107.947 145.845 109.325 145.178 110.936C144.51 112.548 144.336 114.321 144.676 116.032C145.016 117.743 145.856 119.314 147.09 120.547C148.323 121.781 149.894 122.621 151.605 122.961C153.316 123.301 155.089 123.127 156.701 122.459C158.312 121.792 159.69 120.661 160.659 119.211C161.628 117.761 162.145 116.056 162.145 114.311C162.143 111.973 161.213 109.731 159.559 108.078C157.906 106.424 155.664 105.494 153.326 105.492Z" fill="#263238" stroke="#263238" stroke-width="1.06068" stroke-miterlimit="10"/>
<path d="M161.972 112.553C161.563 110.563 160.48 108.775 158.907 107.489C157.334 106.203 155.366 105.498 153.334 105.492V101.825C156.212 101.832 159 102.83 161.228 104.651C163.456 106.472 164.99 109.005 165.57 111.824L161.972 112.553Z" fill="#92E3A9" stroke="#263238" stroke-width="1.06068" stroke-miterlimit="10"/>
<path d="M96.7213 88.0001H155.36" stroke="#263238" stroke-width="1.06068" stroke-miterlimit="10"/>
<path d="M96.7213 88.0001V86.7519" stroke="#263238" stroke-width="1.06068" stroke-miterlimit="10"/>
<path d="M108.447 88.0001V86.7519" stroke="#263238" stroke-width="1.06068" stroke-miterlimit="10"/>
<path d="M120.178 88.0001V86.7519" stroke="#263238" stroke-width="1.06068" stroke-miterlimit="10"/>
<path d="M131.904 88.0001V86.7519" stroke="#263238" stroke-width="1.06068" stroke-miterlimit="10"/>
<path d="M143.63 88.0001V86.7519" stroke="#263238" stroke-width="1.06068" stroke-miterlimit="10"/>
<path d="M155.36 88.0001V86.7519" stroke="#263238" stroke-width="1.06068" stroke-miterlimit="10"/>
<path d="M106.806 71.3332H98.3625V81.3316H106.806V71.3332Z" fill="#92E3A9" stroke="#263238" stroke-width="1.06068" stroke-miterlimit="10"/>
<path d="M118.532 59.6676H110.089V82.9987H118.532V59.6676Z" fill="#92E3A9" stroke="#263238" stroke-width="1.06068" stroke-miterlimit="10"/>
<path d="M130.262 43.3376H121.819V69.3378H130.262V43.3376Z" fill="#92E3A9" stroke="#263238" stroke-width="1.06068" stroke-miterlimit="10"/>
<path d="M141.988 67.6707H133.545V72.6721H141.988V67.6707Z" fill="#92E3A9" stroke="#263238" stroke-width="1.06068" stroke-miterlimit="10"/>
<path d="M153.714 64.669H145.271V77.6691H153.714V64.669Z" fill="#92E3A9" stroke="#263238" stroke-width="1.06068" stroke-miterlimit="10"/>
<path d="M106.806 81.3359H98.3625V88.0044H106.806V81.3359Z" fill="#263238" stroke="#263238" stroke-width="1.06068" stroke-miterlimit="10"/>
<path d="M118.532 83.003H110.089V88.0044H118.532V83.003Z" fill="#263238" stroke="#263238" stroke-width="1.06068" stroke-miterlimit="10"/>
<path d="M130.262 69.3335H121.819V88.0001H130.262V69.3335Z" fill="#263238" stroke="#263238" stroke-width="1.06068" stroke-miterlimit="10"/>
<path d="M141.988 72.6678H133.545V88.0001H141.988V72.6678Z" fill="#263238" stroke="#263238" stroke-width="1.06068" stroke-miterlimit="10"/>
<path d="M153.714 77.6691H145.271V88.0001H153.714V77.6691Z" fill="#263238" stroke="#263238" stroke-width="1.06068" stroke-miterlimit="10"/>
<path d="M170.986 38.617C170.885 38.6177 170.784 38.5932 170.695 38.5457C170.605 38.4982 170.529 38.4292 170.472 38.3449L152.306 11.8523L133.877 31.5036L115.06 19.2378L96.8552 23.4617L78.3657 38.4788C78.2374 38.583 78.073 38.632 77.9086 38.615C77.7441 38.598 77.5932 38.5164 77.489 38.3881C77.3847 38.2598 77.3357 38.0954 77.3527 37.9309C77.3698 37.7665 77.4514 37.6156 77.5797 37.5113L96.2938 22.3129L115.297 17.9032L133.687 29.8927L152.462 9.86993L171.5 37.6409C171.565 37.7341 171.602 37.8432 171.609 37.9563C171.617 38.0695 171.593 38.1824 171.54 38.2829C171.488 38.3834 171.409 38.4677 171.312 38.5265C171.215 38.5854 171.104 38.6167 170.99 38.617H170.986Z" fill="#263238"/>
<path d="M79.5362 37.9951C79.5362 38.3 79.4457 38.5981 79.2763 38.8517C79.1069 39.1052 78.8661 39.3029 78.5843 39.4196C78.3026 39.5363 77.9926 39.5668 77.6935 39.5073C77.3944 39.4478 77.1197 39.301 76.904 39.0853C76.6884 38.8697 76.5415 38.595 76.482 38.2959C76.4226 37.9968 76.4531 37.6868 76.5698 37.405C76.6865 37.1233 76.8841 36.8825 77.1377 36.713C77.3912 36.5436 77.6893 36.4532 77.9943 36.4532C78.4032 36.4532 78.7954 36.6156 79.0846 36.9048C79.3737 37.1939 79.5362 37.5861 79.5362 37.9951Z" fill="#92E3A9"/>
<path d="M96.5745 24.4292C97.4261 24.4292 98.1164 23.7389 98.1164 22.8873C98.1164 22.0357 97.4261 21.3454 96.5745 21.3454C95.7229 21.3454 95.0326 22.0357 95.0326 22.8873C95.0326 23.7389 95.7229 24.4292 96.5745 24.4292Z" fill="#92E3A9"/>
<path d="M115.176 20.1102C116.028 20.1102 116.718 19.4199 116.718 18.5683C116.718 17.7168 116.028 17.0265 115.176 17.0265C114.325 17.0265 113.634 17.7168 113.634 18.5683C113.634 19.4199 114.325 20.1102 115.176 20.1102Z" fill="#92E3A9"/>
<path d="M133.778 32.2379C134.63 32.2379 135.32 31.5476 135.32 30.696C135.32 29.8444 134.63 29.1541 133.778 29.1541C132.927 29.1541 132.236 29.8444 132.236 30.696C132.236 31.5476 132.927 32.2379 133.778 32.2379Z" fill="#92E3A9"/>
<path d="M153.922 10.8633C153.922 11.1682 153.831 11.4663 153.662 11.7199C153.493 11.9735 153.252 12.1711 152.97 12.2878C152.688 12.4045 152.378 12.435 152.079 12.3755C151.78 12.316 151.505 12.1692 151.29 11.9536C151.074 11.7379 150.927 11.4632 150.868 11.1641C150.808 10.865 150.839 10.555 150.955 10.2732C151.072 9.99149 151.27 9.75069 151.523 9.58126C151.777 9.41184 152.075 9.32141 152.38 9.32141C152.789 9.32141 153.181 9.48386 153.47 9.77302C153.759 10.0622 153.922 10.4544 153.922 10.8633Z" fill="#92E3A9"/>
<path d="M172.524 37.9951C172.524 38.3 172.433 38.5981 172.264 38.8517C172.094 39.1052 171.854 39.3029 171.572 39.4196C171.29 39.5363 170.98 39.5668 170.681 39.5073C170.382 39.4478 170.107 39.301 169.891 39.0853C169.676 38.8697 169.529 38.595 169.469 38.2959C169.41 37.9968 169.441 37.6868 169.557 37.405C169.674 37.1233 169.872 36.8825 170.125 36.713C170.379 36.5436 170.677 36.4532 170.982 36.4532C171.391 36.4532 171.783 36.6156 172.072 36.9048C172.361 37.1939 172.524 37.5861 172.524 37.9951Z" fill="#92E3A9"/>
<path d="M204.233 184.952C220.697 184.952 234.043 183.16 234.043 180.949C234.043 178.737 220.697 176.945 204.233 176.945C187.77 176.945 174.424 178.737 174.424 180.949C174.424 183.16 187.77 184.952 204.233 184.952Z" fill="#92E3A9"/>
<path opacity="0.7" d="M204.233 184.952C220.697 184.952 234.043 183.16 234.043 180.949C234.043 178.737 220.697 176.945 204.233 176.945C187.77 176.945 174.424 178.737 174.424 180.949C174.424 183.16 187.77 184.952 204.233 184.952Z" fill="white"/>
<path d="M40.9159 184.952C56.1079 184.952 68.4234 183.16 68.4234 180.949C68.4234 178.737 56.1079 176.945 40.9159 176.945C25.7239 176.945 13.4084 178.737 13.4084 180.949C13.4084 183.16 25.7239 184.952 40.9159 184.952Z" fill="#92E3A9"/>
<path opacity="0.7" d="M40.9159 184.952C56.1079 184.952 68.4234 183.16 68.4234 180.949C68.4234 178.737 56.1079 176.945 40.9159 176.945C25.7239 176.945 13.4084 178.737 13.4084 180.949C13.4084 183.16 25.7239 184.952 40.9159 184.952Z" fill="white"/>
<path d="M195.82 39.904C195.82 39.904 207.144 38.807 207.792 40.6944C208.44 42.5818 208.224 46.8921 208.224 46.8921C208.795 47.0404 209.351 47.2384 209.887 47.4838C210.038 47.6307 211.714 48.7277 210.15 50.5287C209.742 50.9854 209.247 51.3568 208.695 51.6214C208.005 51.9266 207.35 52.3029 206.738 52.7443L204.467 55.3228L204.899 58.6441C204.899 58.6441 205.914 59.3783 207.153 61.9394C207.153 61.9394 210.081 63.667 211.8 64.6474C213.214 65.3902 214.684 66.0198 216.197 66.5305C216.197 66.5305 216.983 66.7853 216.927 67.3511C216.871 67.9169 213.014 80.7399 213.014 80.7399L210.984 87.2184C210.945 88.0145 210.841 88.8061 210.673 89.5852C210.384 90.9802 209.295 91.8958 208.168 91.6107L208.28 96.3616C208.28 96.3616 202.985 99.0091 194.252 98.56C194.252 98.56 190.141 98.1626 187.1 95.9125L187.044 84.8127L173.033 82.1004C173.033 82.1004 171.258 81.7246 172.169 80.1266C173.081 78.5286 176.143 74.5638 176.143 74.5638L185.986 62.5225C185.986 62.5225 186.664 61.7235 186.914 61.4687C187.165 61.2138 187.778 61.0368 190.21 60.8338C192.641 60.6308 195.367 60.16 195.367 60.16C195.367 60.16 196.844 58.8902 197.055 58.8902C197.267 58.8902 197.31 56.9899 197.31 56.9899C196.563 56.4509 195.942 55.7563 195.489 54.954C195.037 54.1517 194.764 53.2608 194.689 52.3427C194.477 49.2589 195.829 42.0333 195.829 42.0333L195.82 39.904Z" fill="white"/>
<path d="M187.273 95.8693C187.273 95.8693 186.081 113.577 186.081 122.051C186.081 130.525 186.612 137.388 186.876 143.339C187.139 149.291 186.081 153.389 187.005 157.751C187.929 162.114 190.05 174.811 190.05 174.811L192.542 176.314C192.542 176.314 192.974 166.212 193.881 162.645C194.788 159.077 195.073 144 195.608 139.37C196.144 134.74 197.859 118.345 197.859 118.345C197.859 118.345 204.471 135.535 206.065 142.281C207.658 149.027 213.074 164.23 214.271 167.931C215.467 171.633 217.311 177.118 217.311 177.118C217.872 177.282 218.46 177.326 219.039 177.247C219.289 177.227 219.529 177.144 219.738 177.005C219.947 176.866 220.116 176.676 220.231 176.453C220.231 176.453 218.473 165.379 217.7 159.997C216.746 153.342 215.191 143.339 214.245 139.638C213.299 135.936 211.865 130.114 211.865 127.337C211.865 124.56 208.298 96.6726 208.298 96.6726C208.298 96.6726 195.868 102.084 187.273 95.8693Z" fill="#263238"/>
<path d="M197.85 118.345L192.546 112.16" stroke="white" stroke-width="0.530341" stroke-miterlimit="10" stroke-linecap="round"/>
<path d="M191.19 112.614L195.557 116.678" stroke="white" stroke-width="0.530341" stroke-miterlimit="10" stroke-linecap="round"/>
<path d="M200.523 113.067C201.642 110.238 203.719 107.893 206.393 106.442" stroke="white" stroke-width="0.530341" stroke-miterlimit="10" stroke-linecap="round"/>
<path d="M206.691 98.167C206.691 98.167 206.091 100.421 206.842 101.778C207.594 103.134 208.349 103.134 208.349 103.134C208.349 103.134 209.701 110.506 209.701 114.722C209.701 118.937 208.799 119.386 209.701 124.051C210.604 128.715 211.209 130.222 211.209 132.93C211.209 135.638 212.409 137.448 213.463 139.102C214.517 140.756 214.819 145.581 214.819 147.528C214.819 149.476 215.42 151.593 216.024 153.549C216.024 153.549 216.167 157.937 216.927 158.965C217.687 159.993 217.83 163.483 217.83 163.483" stroke="white" stroke-width="0.530341" stroke-miterlimit="10" stroke-linecap="round"/>
<path d="M196.762 117.732C196.762 117.732 197.06 121.187 196.006 127.212C194.952 133.237 194.201 134.887 194.049 141.81C193.898 148.733 194.503 149.938 194.2 153.549C193.898 157.16 192.093 162.865 192.093 165.457C192.093 168.048 192.369 176.332 192.369 176.332" stroke="white" stroke-width="0.530341" stroke-miterlimit="10" stroke-linecap="round"/>
<path d="M193.449 99.0696L193.751 100.275L195.708 100.724L195.406 99.2208" stroke="white" stroke-width="0.530341" stroke-miterlimit="10" stroke-linecap="round"/>
<path d="M195.716 100.724C195.716 100.724 199.327 100.573 201.132 99.9723L200.701 98.7673" stroke="white" stroke-width="0.530341" stroke-miterlimit="10" stroke-linecap="round"/>
<path d="M202.329 98.465L202.761 99.9723C202.761 99.9723 205.65 99.8082 206.082 99.3763" stroke="white" stroke-width="0.530341" stroke-miterlimit="10" stroke-linecap="round"/>
<path d="M193.751 100.275C192.753 100.243 191.775 99.9848 190.892 99.5188L189.536 98.7673L189.968 97.7135" stroke="white" stroke-width="0.530341" stroke-miterlimit="10" stroke-linecap="round"/>
<path d="M190.05 174.811C190.05 174.811 183.572 179.04 182.643 181.022C181.714 183.004 185.42 182.214 188.063 181.156C190.706 180.098 192.382 176.314 192.382 176.314L190.05 174.811Z" fill="white" stroke="#263238" stroke-width="1.06068" stroke-miterlimit="10" stroke-linecap="round"/>
<path d="M217.519 177.174C217.845 178.985 218.489 180.725 219.419 182.313C220.844 184.529 223.535 186.429 223.535 182.944C223.535 179.459 220.214 176.466 220.214 176.466C220.214 176.466 218.564 177.36 217.519 177.174Z" fill="white" stroke="#263238" stroke-width="1.06068" stroke-miterlimit="10" stroke-linecap="round"/>
<path d="M195.781 42.2967C195.781 42.2967 194.378 51.0038 194.853 53.1633C195.937 57.9962 199.742 57.7889 202.122 56.8646C204.346 56.0008 206.566 52.9473 206.851 52.5457C206.871 52.5173 206.9 52.4961 206.933 52.4852C207.287 52.3859 209.485 51.6862 210.453 49.9888C211.511 48.136 209.529 47.3456 209.529 47.3456" fill="white"/>
<g style="mix-blend-mode:multiply" opacity="0.5">
<path d="M204.786 54.7872L206.885 52.4809C206.885 52.4809 209.369 51.7164 210.453 49.9672C211.088 48.9436 210.738 48.0496 210.353 47.8078C209.827 47.5226 209.283 47.2702 208.725 47.0519L208.021 48.6024L207.421 48.7061C207.421 48.7061 207.671 47.1081 206.946 46.1622C206.22 45.2164 206.056 42.4781 206.056 42.4781C206.056 42.4781 205.041 47.9373 204.916 50.2221C204.884 51.4936 204.486 52.729 203.771 53.7809C203.771 53.7809 203.901 55.1759 204.151 56.5709C204.182 56.7351 204.212 56.9812 204.242 57.2879L204.588 56.7351L204.778 57.262C204.562 56.355 204.462 55.3919 204.786 54.7872Z" fill="#92E3A9"/>
</g>
<path d="M195.781 42.2967C195.781 42.2967 194.378 51.0038 194.853 53.1633C195.937 57.9962 199.742 57.7889 202.122 56.8646C204.346 56.0008 206.566 52.9473 206.851 52.5457C206.871 52.5173 206.9 52.4961 206.933 52.4852C207.287 52.3859 209.485 51.6862 210.453 49.9888C211.511 48.136 209.529 47.3456 209.529 47.3456" stroke="#263238" stroke-width="1.06068" stroke-miterlimit="10" stroke-linecap="round"/>
<path d="M201.154 46.7237C201.072 47.0692 201.154 47.3802 201.314 47.419C201.474 47.4579 201.69 47.2161 201.772 46.8749C201.854 46.5337 201.772 46.2227 201.612 46.1795C201.452 46.1363 201.236 46.3825 201.154 46.7237Z" fill="#263238"/>
<path d="M197.444 45.821C197.362 46.1665 197.444 46.4775 197.604 46.5164C197.764 46.5553 197.98 46.3134 198.062 45.9722C198.144 45.631 198.062 45.3157 197.902 45.2768C197.742 45.238 197.522 45.4755 197.444 45.821Z" fill="#263238"/>
<path d="M203.456 45.2121C203.252 44.8529 202.961 44.5506 202.611 44.3326C202.26 44.1146 201.86 43.9878 201.448 43.9639" stroke="#263238" stroke-width="1.06068" stroke-miterlimit="10" stroke-linecap="round"/>
<path d="M198.606 44.0287C198.266 43.8801 197.889 43.8385 197.525 43.9095C197.16 43.9804 196.827 44.1606 196.567 44.426" stroke="#263238" stroke-width="1.06068" stroke-miterlimit="10" stroke-linecap="round"/>
<path d="M198.856 45.6008C198.864 46.1793 198.821 46.7575 198.727 47.3284C198.584 48.0496 198.023 48.1921 198.165 48.7493C198.308 49.3064 199.029 49.3626 199.029 49.3626" stroke="#263238" stroke-width="1.06068" stroke-miterlimit="10" stroke-linecap="round"/>
<path d="M199.781 51.6128C200.086 51.7101 200.409 51.7401 200.728 51.7006C201.046 51.6611 201.352 51.553 201.625 51.3839" stroke="#263238" stroke-width="1.06068" stroke-miterlimit="10" stroke-linecap="round"/>
<path d="M206.622 36.2156C206.622 36.2156 203.715 33.702 200.938 33.702C198.161 33.702 195.911 35.2914 194.192 35.4296C192.473 35.5678 191.285 33.9741 190.227 36.0904C189.169 38.2067 193.138 41.7785 195.781 42.3054C198.424 42.8323 202.126 42.0419 203.184 41.908C204.198 41.8385 205.215 41.8385 206.229 41.908C206.229 41.908 205.434 44.4217 206.229 45.2164C207.024 46.0111 207.153 46.538 207.153 47.0649C207.198 47.6464 207.287 48.2239 207.417 48.7925L208.211 49.0603L208.609 47.6048C209.681 46.4614 210.414 45.0422 210.725 43.5061C211.118 41.1263 209.136 38.7552 209.136 38.7552L206.622 36.2156Z" fill="#263238"/>
<path d="M195.488 41.2213C195.488 41.2213 200.01 42.0851 203.551 40.6124C207.093 39.1396 204.039 36.2156 204.039 36.2156" stroke="white" stroke-width="0.530341" stroke-miterlimit="10" stroke-linecap="round"/>
<path d="M204.786 35.9695C205.153 35.9695 208.207 38.2887 207.594 39.9991C206.98 41.7094 205.762 41.8346 205.762 41.8346" stroke="white" stroke-width="0.530341" stroke-miterlimit="10" stroke-linecap="round"/>
<path d="M204.285 88.432L200.467 86.4194C199.486 86.365 198.51 86.238 197.548 86.0393C196.658 85.7845 187.528 84.912 187.528 84.912L187.389 87.0715C187.389 87.0715 197.803 88.4709 199.958 88.7257C202.113 88.9805 204.022 89.9955 204.402 90.6303C204.782 91.2652 205.546 91.9001 205.166 93.6536C204.786 95.4071 202.247 97.9726 202.247 97.9726C202.126 97.7912 208.354 97.342 208.293 96.6769C208.159 95.3553 207.455 91.4941 207.455 91.4941L204.285 88.432Z" fill="#92E3A9"/>
<path opacity="0.5" d="M204.285 88.432L200.467 86.4194C199.486 86.365 198.51 86.238 197.548 86.0393C196.658 85.7845 187.528 84.912 187.528 84.912L187.389 87.0715C187.389 87.0715 197.803 88.4709 199.958 88.7257C202.113 88.9805 204.022 89.9955 204.402 90.6303C204.782 91.2652 205.546 91.9001 205.166 93.6536C204.786 95.4071 202.247 97.9726 202.247 97.9726C202.147 97.7782 208.367 97.3377 208.293 96.6769C208.09 94.9925 207.455 91.4941 207.455 91.4941L204.285 88.432Z" fill="white"/>
<path d="M216.879 67.3036C216.543 65.7228 214.029 65.9345 212.513 65.0577C210.997 64.181 207.33 62.1511 207.33 62.1511L205.555 59.4819C205.235 58.7623 204.976 58.0168 204.782 57.2533L204.592 56.7264L204.246 57.2793C204.467 59.6461 204.678 65.7056 204.678 65.7056L205.438 69.5149C205.438 69.5149 208.362 82.0831 209.123 84.8775C209.883 87.6718 209.883 89.5722 209.377 90.4619C208.872 91.3516 209.04 91.7576 209.04 91.7576C209.04 91.7576 211.023 90.2244 210.902 88.7041C210.742 86.916 217.117 68.3747 216.879 67.3036Z" fill="#92E3A9"/>
<path opacity="0.5" d="M216.879 67.3036C216.707 65.6969 214.029 65.9345 212.513 65.0577C210.997 64.181 207.33 62.1511 207.33 62.1511L205.555 59.4819C205.235 58.7623 204.976 58.0168 204.782 57.2533L204.592 56.7264L204.246 57.2793C204.467 59.6461 204.678 65.7056 204.678 65.7056L205.438 69.5149C205.438 69.5149 208.362 82.0831 209.123 84.8775C209.883 87.6718 209.883 89.5722 209.377 90.4619C208.872 91.3516 209.04 91.7576 209.04 91.7576C209.04 91.7576 211.079 90.22 210.902 88.7041C210.699 87.0758 217.035 68.6382 216.879 67.3036Z" fill="white"/>
<path d="M205.784 65.7185C205.784 65.7185 204.989 58.5793 204.592 56.7264C204.195 54.8736 204.462 53.8198 202.743 53.8198C201.024 53.8198 198.908 53.552 199.288 54.4806C199.668 55.4091 202.312 54.6101 202.743 55.0075C203.175 55.4048 202.873 56.3291 202.873 56.3291C202.873 56.3291 199.418 56.5969 199.418 57.5211C199.418 58.4454 199.552 60.9763 200.213 61.2225C200.873 61.4687 201.137 60.0348 201.137 60.0348C201.137 60.0348 201.271 63.058 201.931 64.1335C202.352 64.7976 202.84 65.417 203.387 65.982L205.784 65.7185Z" fill="white" stroke="#263238" stroke-width="1.06068" stroke-miterlimit="10" stroke-linecap="round"/>
<path d="M203.404 67.7009C203.404 67.7009 203.007 84.113 203.668 86.7433C204.328 89.3735 207.9 92.9583 209.749 91.2393C211.597 89.5204 210.677 85.819 210.677 84.1001C210.677 82.3811 206.445 69.6877 206.445 68.7591C206.382 67.988 206.203 67.2308 205.914 66.5132" stroke="#263238" stroke-width="1.06068" stroke-miterlimit="10" stroke-linecap="round"/>
<path d="M203.668 69.6877L206.311 69.4199" stroke="#263238" stroke-width="1.06068" stroke-miterlimit="10" stroke-linecap="round"/>
<path d="M186.763 77.8937L187.273 63.2913C187.273 63.2913 186.638 62.9112 186.383 64.3062C186.128 65.7013 186.003 68.4999 186.003 68.4999C186.003 68.4999 182.954 66.5953 183.718 67.7355C184.483 68.8757 185.748 71.4196 185.748 71.4196L181.032 76.1143L183.191 77.004L186.763 77.8937Z" fill="#92E3A9"/>
<path opacity="0.5" d="M186.763 77.8937L187.273 63.2913C187.273 63.2913 186.638 62.9112 186.383 64.3062C186.128 65.7013 186.003 68.4999 186.003 68.4999C186.003 68.4999 182.954 66.5953 183.718 67.7355C184.483 68.8757 185.748 71.4196 185.748 71.4196L181.032 76.1143L183.191 77.004L186.763 77.8937Z" fill="white"/>
<path d="M193.086 66.5521C193.086 66.5521 192.844 67.4159 193.859 67.4159C194.874 67.4159 196.658 66.6946 196.658 66.6946L196.528 65.2607C196.528 65.2607 194.088 66.4484 193.086 66.5521Z" fill="#92E3A9"/>
<path opacity="0.5" d="M193.086 66.5521C193.086 66.5521 192.844 67.4159 193.859 67.4159C194.874 67.4159 196.658 66.6946 196.658 66.6946L196.528 65.2607C196.528 65.2607 194.088 66.4484 193.086 66.5521Z" fill="white"/>
<path d="M197.444 56.8949C197.444 56.8949 196.122 64.669 196.917 66.3966C197.712 68.1242 198.9 67.7182 199.824 66.9278C200.748 66.1375 201.94 64.1507 201.94 64.1507" stroke="#263238" stroke-width="1.06068" stroke-miterlimit="10" stroke-linecap="round"/>
<path d="M187.005 85.0243L187.273 95.8693C187.273 95.8693 190.296 98.7759 196.131 98.7759C201.966 98.7759 208.298 96.6596 208.298 96.6596V92.8244" stroke="#263238" stroke-width="1.06068" stroke-miterlimit="10" stroke-linecap="round"/>
<path d="M204.86 58.4454C204.86 58.4454 207.239 60.8251 207.239 63.0753C207.239 65.3255 206.842 65.8524 206.842 65.8524" stroke="#263238" stroke-width="1.06068" stroke-miterlimit="10" stroke-linecap="round"/>
<path d="M206.972 61.7537C206.972 61.7537 210.543 63.8657 212.526 65.0577C214.508 66.2498 216.892 66.2454 216.892 67.3036C216.892 68.3617 211.338 86.3459 211.338 86.3459" stroke="#263238" stroke-width="1.06068" stroke-miterlimit="10" stroke-linecap="round"/>
<path d="M209.222 67.7009L207.9 72.9917" stroke="#263238" stroke-width="1.06068" stroke-miterlimit="10" stroke-linecap="round"/>
<path d="M187.04 70.8063L184.902 66.3232" stroke="#263238" stroke-width="0.530341" stroke-miterlimit="10" stroke-linecap="round"/>
<path d="M187.04 72.089L183.835 70.1671" stroke="#263238" stroke-width="0.530341" stroke-miterlimit="10" stroke-linecap="round"/>
<path d="M197.496 82.1177L196.857 85.3223" stroke="#263238" stroke-width="0.530341" stroke-miterlimit="10" stroke-linecap="round"/>
<path d="M214.785 67.1783C214.785 67.1783 211.584 67.8175 208.596 71.4455" stroke="#263238" stroke-width="0.530341" stroke-miterlimit="10" stroke-linecap="round"/>
<path d="M212.651 66.984C212.651 66.984 211.787 66.768 208.812 69.3292" stroke="#263238" stroke-width="0.530341" stroke-miterlimit="10" stroke-linecap="round"/>
<path d="M197.496 68.0335L196.217 78.0621L197.284 78.2781L198.139 75.0777" stroke="#263238" stroke-width="0.530341" stroke-miterlimit="10" stroke-linecap="round"/>
<path d="M198.351 94.2842C194.507 97.4889 189.173 97.2729 189.173 97.2729" stroke="#263238" stroke-width="0.530341" stroke-miterlimit="10" stroke-linecap="round"/>
<path d="M182.107 76.8658C182.107 76.8658 179.494 74.4731 175.793 77.5179" stroke="#263238" stroke-width="0.530341" stroke-miterlimit="10" stroke-linecap="round"/>
<path d="M197.189 58.8427C197.189 58.8427 196.131 59.1062 194.939 60.959C193.747 62.8119 192.296 65.982 193.354 66.2454C194.412 66.5089 196.377 65.3212 196.377 65.3212" stroke="#263238" stroke-width="1.06068" stroke-miterlimit="10" stroke-linecap="round"/>
<path d="M201.288 65.8524L202.61 67.0401" stroke="#263238" stroke-width="1.06068" stroke-miterlimit="10" stroke-linecap="round"/>
<path d="M195.336 60.1643C195.336 60.1643 190.443 60.8251 188.461 60.959C186.478 61.0929 186.863 61.8228 186.215 62.2806C185.17 63.0105 173.18 78.209 172.394 79.6645C171.608 81.12 171.733 81.7808 173.055 82.1781C174.376 82.5755 187.541 84.8904 187.541 84.8904L199.172 86.0825L200.096 83.1715C200.096 83.1715 202.8 83.53 203.275 83.53" stroke="#263238" stroke-width="1.06068" stroke-miterlimit="10" stroke-linecap="round"/>
<path d="M198.774 82.1004C196.207 81.3557 193.726 80.3424 191.372 79.0771" stroke="#263238" stroke-width="1.06068" stroke-miterlimit="10" stroke-linecap="round"/>
<path d="M190.313 78.8093C190.313 78.8093 186.426 77.3668 184.323 77.1033C182.22 76.8399 178.998 76.7535 178.998 76.7535" stroke="#263238" stroke-width="1.06068" stroke-miterlimit="10" stroke-linecap="round"/>
<path d="M186.742 77.0904L187.139 66.6428" stroke="#263238" stroke-width="1.06068" stroke-miterlimit="10" stroke-linecap="round"/>
<path d="M199.172 86.0825C200.079 86.5387 201.03 86.9033 202.009 87.1709" stroke="#263238" stroke-width="1.06068" stroke-miterlimit="10" stroke-linecap="round"/>
<path d="M26.1234 77.6648L27.6826 69.1435L37.5514 65.2564C37.5514 65.2564 38.0308 62.6089 38.5146 62.4923C38.9983 62.3756 39.4734 61.2873 39.4734 61.2873L39.2358 59.1062C39.2358 59.1062 40.1385 55.651 44.6777 58.3417C44.6777 58.3417 43.3043 59.2573 43.5419 59.6374C43.7794 60.0175 43.2784 61.2268 43.8787 61.2268C44.4791 61.2268 45.6927 61.9913 46.306 62.6089C46.7352 63.07 47.1145 63.5753 47.4376 64.1162L52.5469 64.4099C53.0706 64.4143 53.5917 64.4854 54.0974 64.6215C54.1838 62.1251 53.8771 60.2205 53.2725 58.7391C51.0741 53.3922 47.0661 51.4832 46.4917 48.8054C45.9173 46.1277 46.2067 45.8469 46.2067 45.8469C46.7907 45.2531 47.2184 44.5236 47.4513 43.7239C47.6842 42.9241 47.7151 42.0791 47.5412 41.2645C46.9711 38.401 44.7728 36.3927 36.8474 36.0126C28.9221 35.6326 30.071 41.0702 30.071 41.0702L30.166 41.4502C30.166 41.4502 25.1042 43.1778 26.063 49.5656C27.0218 55.9533 29.7859 58.7304 29.6909 60.7344C29.5959 62.7384 26.6331 63.5029 22.4307 68.0767C18.2284 72.6505 17.3732 79.5306 19.0922 84.018C19.956 86.225 21.6447 88.0649 23.7653 89.4383L26.1234 77.6648Z" fill="#263238"/>
<path d="M32.7401 78.507V80.4333L29.0819 91.736C31.3678 92.3408 33.7651 92.3912 36.0743 91.8828C37.3779 91.5431 38.6238 91.0119 39.7714 90.3064L32.7401 78.507Z" fill="#263238"/>
<path d="M43.2568 59.5683L43.6887 61.5119C43.6887 61.5119 44.9844 60.2162 47.5153 64.1507C47.5153 64.1507 52.7758 64.0255 54.2097 64.7424C54.2097 64.7424 54.5077 64.8288 55.4795 65.861C56.4513 66.8933 60.1051 70.18 60.1051 70.18C60.1051 70.18 64.7955 74.5335 65.262 74.8704C65.7284 75.2073 67.4776 76.8787 68.7862 77.4618L72.2932 69.476L73.8567 65.5242L74.7205 62.272H74.9969L75.0574 59.6504L74.8457 56.5234C74.8802 56.3644 74.9528 56.2162 75.0574 56.0915C75.4195 55.5897 75.6981 55.0325 75.8823 54.4417C75.8823 54.148 75.5843 52.4118 75.5843 52.4118C75.5843 52.4118 75.4375 51.9799 75.7571 51.9281C76.0767 51.8762 77.2557 52.2865 77.4026 53.1115L77.8345 52.9646C78.1922 52.11 78.638 51.2951 79.1647 50.533C79.8644 49.626 80.5813 49.0559 81.0262 49.3496C81.1483 49.4338 81.2363 49.5589 81.2743 49.7022C81.3123 49.8455 81.2978 49.9977 81.2335 50.1314L79.8428 52.6882C79.8428 52.6882 79.2295 53.5131 79.9896 53.8068C79.9896 53.8068 81.6352 54.865 81.7431 55.7935C81.8511 56.7221 81.2551 57.5211 80.7282 58.2035C80.2013 58.8859 79.2727 60.363 79.2727 60.363L78.193 61.3175L77.7611 62.963L78.2707 63.5979L77.5106 66.8933L76.962 69.3637L76.6856 70.8624L74.958 76.7794L73.2305 81.9363C73.2305 81.9363 72.3408 84.8904 70.1856 84.8084C68.0304 84.7263 65.6679 83.5602 64.9035 83.1801C64.139 82.8001 57.8376 79.509 57.8376 79.509L56.542 78.8957C56.7149 79.4856 56.7893 80.0999 56.7622 80.714C56.7406 81.8542 55.514 84.3678 55.1556 84.938L54.9439 89.3951C54.8603 90.1684 54.8748 90.9491 54.9871 91.7187C55.1772 92.8805 56.1489 99.454 56.3606 100.275C56.3606 100.275 54.2615 102.175 48.0077 103.078C41.7538 103.98 38.8255 102.516 38.8255 102.516L36.0398 100.879L39.4734 94.0942C39.4734 94.0942 40.3372 92.0772 40.2508 91.546C40.1644 91.0147 38.6873 88.7257 38.6873 88.7257L33.267 79.0771L33.0122 79.1635L32.17 81.9795L29.1251 91.5287L25.1171 103.449C25.1171 103.449 24.0201 106.472 23.5666 107.366L22.3012 111.223C22.3714 111.912 22.5417 112.587 22.8065 113.227L19.6234 111.167L20.1892 108.144L20.8932 103.635L21.757 98.7327L22.5171 94.6772L23.7307 89.2699L24.1626 87.7755L25.0264 83.5516L26.5467 75.8897L27.8424 69.3292L36.9122 65.7228L37.478 65.291C37.6038 64.456 37.9104 63.6586 38.3764 62.9544C38.6998 62.4911 39.0848 62.0741 39.5209 61.7148C39.5209 61.7148 39.4777 61.1491 39.4475 60.6135C39.4172 60.078 39.279 59.0932 39.279 59.0932C39.279 59.0932 42.082 60.2982 43.2568 59.5683Z" fill="white"/>
<path d="M31.1075 42.2104C31.1075 42.2104 32.7876 38.4917 36.1478 38.4917C39.5079 38.4917 46.4658 45.0911 46.4658 45.0911" stroke="white" stroke-width="0.530341" stroke-miterlimit="10" stroke-linecap="round"/>
<path d="M32.5457 42.7978C32.5457 42.7978 34.5843 40.6383 37.1066 41.4761C39.6289 42.314 39.9873 45.3157 39.9873 45.3157" stroke="white" stroke-width="0.530341" stroke-miterlimit="10" stroke-linecap="round"/>
<path d="M30.8657 43.1692C30.8657 43.1692 27.8683 44.8493 27.6264 47.9719C27.3846 51.0945 31.8245 54.8088 32.4248 59.0112C33.0252 63.2135 29.9069 64.168 24.8666 67.6491C19.8264 71.1302 20.6686 78.9259 21.7483 80.606" stroke="white" stroke-width="0.530341" stroke-miterlimit="10" stroke-linecap="round"/>
<path d="M22.3487 81.5691C22.3487 81.5691 23.0656 83.1283 24.1454 83.6077" stroke="white" stroke-width="0.530341" stroke-miterlimit="10" stroke-linecap="round"/>
<path d="M31.2285 51.3277C31.0865 51.6325 31.0229 51.9679 31.0432 52.3035C31.0636 52.6391 31.1673 52.9643 31.3451 53.2497C31.9454 54.3294 36.5278 59.7281 36.1478 62.2504C35.7677 64.7727 33.388 66.3275 33.388 66.3275" stroke="white" stroke-width="0.530341" stroke-miterlimit="10" stroke-linecap="round"/>
<path d="M33.5046 43.1692C33.5046 43.1692 30.7447 44.3699 30.8657 47.1297C30.9866 49.8895 31.5869 50.6108 31.5869 50.6108" stroke="white" stroke-width="0.530341" stroke-miterlimit="10" stroke-linecap="round"/>
<path d="M46.4658 52.2995C47.3233 54.2408 48.5 56.0247 49.9469 57.5773C52.1064 59.7368 52.3439 62.8594 52.3439 62.8594" stroke="white" stroke-width="0.530341" stroke-miterlimit="10" stroke-linecap="round"/>
<path d="M48.9837 59.1278C48.9837 59.1278 50.0635 61.6501 50.0635 63.2092" stroke="white" stroke-width="0.530341" stroke-miterlimit="10" stroke-linecap="round"/>
<path d="M43.0106 59.7972L39.6202 62.8507C39.6202 62.8507 39.2574 63.775 38.575 65.2564C37.8926 66.7378 38.0049 69.5754 38.0049 69.5754L40.0953 73.7345C40.0953 73.7345 36.0743 69.1219 35.8454 68.5518C35.6165 67.9817 31.4099 69.0096 30.6152 69.3508C29.8205 69.692 28.7926 70.3744 29.0215 71.398C29.2504 72.4216 30.274 73.782 29.8162 74.0109C29.3583 74.2399 28.1102 73.6697 28.1102 74.3521C28.1102 75.0345 29.5916 77.6518 28.9092 78.5588C28.2268 79.4658 23.9035 94.1417 23.9035 94.1417C23.9035 94.1417 26.6331 91.8656 25.9507 92.7769C25.2683 93.6882 21.9729 101.078 21.9729 101.078L20.7204 105.397L23.6789 90.0473L26.1796 77.0904L27.6826 69.1435C29.1338 68.6597 37.5514 65.2564 37.5514 65.2564C37.5514 65.2564 38.2166 62.4577 39.4734 61.2873L39.2358 59.1062C39.2358 59.1062 41.5292 59.9095 43.0106 59.7972Z" fill="#92E3A9"/>
<path opacity="0.5" d="M43.0106 59.7972L39.6202 62.8507C39.6202 62.8507 39.2574 63.775 38.575 65.2564C37.8926 66.7378 38.0049 69.5754 38.0049 69.5754L40.0953 73.7345C40.0953 73.7345 36.0743 69.1219 35.8454 68.5518C35.6165 67.9817 31.4099 69.0096 30.6152 69.3508C29.8205 69.692 28.7926 70.3744 29.0215 71.398C29.2504 72.4216 30.274 73.782 29.8162 74.0109C29.3583 74.2399 28.1102 73.6697 28.1102 74.3521C28.1102 75.0345 29.5916 77.6518 28.9092 78.5588C28.2268 79.4658 23.9035 94.1417 23.9035 94.1417C23.9035 94.1417 26.6331 91.8656 25.9507 92.7769C25.2683 93.6882 21.9729 101.078 21.9729 101.078L20.7204 105.397L23.6789 90.0473L26.1796 77.0904L27.6826 69.1435C29.1338 68.6597 37.5514 65.2564 37.5514 65.2564C37.5514 65.2564 37.7328 62.665 39.4777 61.758L39.2358 59.1062C39.2358 59.1062 41.5292 59.9095 43.0106 59.7972Z" fill="white"/>
<path d="M55.6306 75.1468C55.6306 75.1468 57.6778 71.7392 57.9067 72.5339C58.1357 73.3286 57.3366 76.0538 57.3366 76.0538C57.3366 76.0538 59.4961 75.2591 59.2715 75.9415C59.047 76.6239 58.5891 76.9651 58.7014 77.3063C58.8137 77.6475 66.2078 81.513 67.1191 81.9665C68.0304 82.42 70.1899 79.807 71.2135 80.6017C72.2371 81.3964 71.2135 84.1217 69.1663 84.126C67.1191 84.1303 61.2064 81.5346 61.2064 81.5346L56.5506 78.8266" fill="#92E3A9"/>
<path opacity="0.5" d="M55.6306 75.1468C55.6306 75.1468 57.6778 71.7392 57.9067 72.5339C58.1357 73.3286 57.3366 76.0538 57.3366 76.0538C57.3366 76.0538 59.4961 75.2591 59.2715 75.9415C59.047 76.6239 58.5891 76.9651 58.7014 77.3063C58.8137 77.6475 66.2078 81.513 67.1191 81.9665C68.0304 82.42 70.1899 79.807 71.2135 80.6017C72.2371 81.3964 71.2135 84.1217 69.1663 84.126C67.1191 84.1303 61.2064 81.5346 61.2064 81.5346L56.5679 78.8352" fill="white"/>
<path d="M43.3518 88.9071C43.3518 88.9071 56.6456 81.8585 54.4861 84.4715C52.3266 87.0845 45.1701 90.0473 43.3518 88.9071Z" fill="#92E3A9"/>
<path opacity="0.5" d="M43.3518 88.9071C43.3518 88.9071 56.6456 81.8585 54.4861 84.4715C52.3266 87.0845 45.1701 90.0473 43.3518 88.9071Z" fill="white"/>
<path d="M39.2358 59.1278C39.2358 59.1278 39.3309 60.9417 39.6202 62.8507C39.9096 64.7597 39.8103 64.7597 41.6242 67.0488C43.4382 69.3378 45.3472 71.2511 45.6322 70.8711" stroke="#263238" stroke-width="1.06068" stroke-miterlimit="10" stroke-linecap="round"/>
<path d="M45.7273 70.2016C45.7273 70.2016 45.9173 66.8587 45.2522 64.6647C44.587 62.4707 43.6282 61.7019 43.6282 61.2095C43.5959 60.6965 43.5325 60.1859 43.4382 59.6806" stroke="#263238" stroke-width="1.06068" stroke-miterlimit="10" stroke-linecap="round"/>
<path d="M39.2358 61.8962C38.4729 62.5832 37.9393 63.4877 37.7069 64.4876C37.4219 66.0122 37.1368 67.8262 37.1368 67.8262L40.0953 73.7475C40.3529 72.7164 40.7373 71.7212 41.2398 70.7847C41.4887 70.3225 41.8111 69.9038 42.1943 69.5451" stroke="#263238" stroke-width="1.06068" stroke-miterlimit="10" stroke-linecap="round"/>
<path d="M46.3967 68.5777C46.6056 68.5254 46.8228 68.5152 47.0356 68.5479C47.2484 68.5805 47.4526 68.6552 47.6362 68.7677C48.4007 69.1521 49.9296 71.1561 49.9296 71.1561C49.9296 71.1561 48.8801 66.1893 47.0661 63.6152C45.2522 61.0411 44.0083 61.2268 44.0083 61.2268" stroke="#263238" stroke-width="1.06068" stroke-miterlimit="10" stroke-linecap="round"/>
<path d="M36.8474 65.6192L27.6826 69.1435C27.6826 69.1435 24.344 87.3782 23.1002 92.2456C21.8563 97.1131 19.7616 110.865 19.7616 110.865L22.2407 111.34L23.1045 108.861" stroke="#263238" stroke-linecap="round" stroke-linejoin="round"/>
<path d="M23.5796 107.435C23.5796 107.435 24.1497 106.572 25.6786 101.821C27.2075 97.0699 31.2932 85.4087 31.98 83.1067C32.6667 80.8047 33.2195 79.2887 33.2195 79.2887" stroke="#263238" stroke-width="1.06068" stroke-miterlimit="10" stroke-linecap="round"/>
<path d="M31.5956 76.4857C31.5956 76.4857 39.3265 90.3064 39.996 90.9024C40.6654 91.4985 39.7109 93.0965 39.5166 93.956" stroke="#263238" stroke-width="1.06068" stroke-miterlimit="10" stroke-linecap="round"/>
<path d="M38.6614 95.6922L36.1823 100.849C36.1823 100.849 37.8063 103.332 44.6777 103.332C48.767 103.345 52.7978 102.361 56.421 100.465C56.421 100.465 54.7971 91.8742 54.8921 90.3453C54.9871 88.8164 55.1815 84.8084 55.1815 84.8084C55.1815 84.8084 56.9091 82.217 56.7061 80.2259C56.5031 78.2349 55.6566 75.9286 55.6566 75.5485C55.6566 75.1684 55.4665 71.0611 55.4665 71.0611" stroke="#263238" stroke-width="1.06068" stroke-miterlimit="10" stroke-linecap="round"/>
<path d="M44.6648 87.2054L51.506 83.0074" stroke="#263238" stroke-width="0.530341" stroke-miterlimit="10" stroke-linecap="round"/>
<path d="M48.2668 85.8881L51.9854 83.7286" stroke="#263238" stroke-width="0.530341" stroke-miterlimit="10" stroke-linecap="round"/>
<path d="M68.7387 77.5525L67.3437 80.9688" stroke="#263238" stroke-width="0.530341" stroke-miterlimit="10" stroke-linecap="round"/>
<path d="M68.1816 79.0469L66.8643 80.3685" stroke="#263238" stroke-width="0.530341" stroke-miterlimit="10" stroke-linecap="round"/>
<path d="M29.1856 91.1702C29.1856 91.1702 26.9052 93.8091 25.346 94.8888" stroke="#263238" stroke-width="0.530341" stroke-miterlimit="10" stroke-linecap="round"/>
<path d="M27.8683 91.8872C27.8683 91.8872 23.9078 95.0055 22.949 95.7267" stroke="#263238" stroke-width="0.530341" stroke-miterlimit="10" stroke-linecap="round"/>
<path d="M28.5723 69.6877C29.7662 71.3758 30.8482 73.1402 31.8115 74.9698" stroke="#263238" stroke-width="0.530341" stroke-miterlimit="10" stroke-linecap="round"/>
<path d="M32.1873 75.8076L33.0252 77.2459" stroke="#263238" stroke-width="0.530341" stroke-miterlimit="10" stroke-linecap="round"/>
<path d="M55.6566 75.5485L56.7061 70.2016" stroke="#263238" stroke-width="0.530341" stroke-miterlimit="10" stroke-linecap="round"/>
<path d="M56.041 75.9286L57.6606 73.6395" stroke="#263238" stroke-width="0.530341" stroke-miterlimit="10" stroke-linecap="round"/>
<path d="M33.2195 79.2715L28.6371 76.788" stroke="#263238" stroke-width="0.530341" stroke-miterlimit="10" stroke-linecap="round"/>
<path d="M45.5372 71.3461C45.5372 71.3461 47.2648 74.8013 47.8306 77.2675" stroke="#263238" stroke-width="0.530341" stroke-miterlimit="10" stroke-linecap="round"/>
<path d="M73.8913 65.3298C74.3482 65.2961 74.8073 65.3553 75.2407 65.5037C75.6742 65.6522 76.0732 65.8869 76.4135 66.1936" stroke="#263238" stroke-width="0.530341" stroke-miterlimit="10" stroke-linecap="round"/>
<path d="M21.4201 108.494L22.6035 108.934" stroke="#263238" stroke-width="0.530341" stroke-miterlimit="10" stroke-linecap="round"/>
<path d="M19.7314 111.037C19.7462 112.68 19.6597 114.321 19.4722 115.952C19.1872 117.961 19.2822 122.543 19.6623 123.973C20.0423 125.402 20.2367 125.7 20.6168 124.837C20.9968 123.973 22.1457 118.92 22.1457 118.92C22.1457 118.92 22.3357 122.258 23.1952 121.973C24.0547 121.688 23.5796 120.064 23.5796 118.63C23.5796 117.196 23.6746 116.721 23.5796 115.577C23.4846 114.432 22.2105 111.603 22.2105 111.603" fill="white"/>
<path d="M19.7314 111.037C19.7462 112.68 19.6597 114.321 19.4722 115.952C19.1872 117.961 19.2822 122.543 19.6623 123.973C20.0423 125.402 20.2367 125.7 20.6168 124.837C20.9968 123.973 22.1457 118.92 22.1457 118.92C22.1457 118.92 22.3357 122.258 23.1952 121.973C24.0547 121.688 23.5796 120.064 23.5796 118.63C23.5796 117.196 23.6746 116.721 23.5796 115.577C23.4846 114.432 22.2105 111.603 22.2105 111.603" stroke="#263238" stroke-miterlimit="10" stroke-linecap="round"/>
<path d="M75.0056 62.1986C74.9621 61.354 74.9621 60.5078 75.0056 59.6633C75.0833 58.8686 74.768 57.6809 74.8458 56.64C74.9235 55.5992 75.9557 55.2148 75.7959 53.8673C75.6361 52.5198 75.3208 52.3599 75.5584 52.0447C75.7959 51.7294 77.286 52.2001 77.381 53.0726C77.4656 53.9704 77.4656 54.8741 77.381 55.7719C77.3032 56.0095 77.8561 57.4995 77.5408 58.1474C77.3602 58.4983 77.2266 58.8715 77.1434 59.2573" stroke="#263238" stroke-width="0.880843" stroke-miterlimit="10" stroke-linecap="round"/>
<path d="M77.7006 53.0035C77.7006 53.0035 79.5232 49.3583 80.5554 49.2762C81.5877 49.1941 81.2681 50.14 80.9485 50.6237C80.6288 51.1074 79.6009 52.8437 79.5232 53.5606C79.4455 54.2776 78.491 56.6487 78.491 56.6487" stroke="#263238" stroke-width="0.880843" stroke-miterlimit="10" stroke-linecap="round"/>
<path d="M79.5362 53.5606C79.5362 53.5606 82.3133 55.2234 81.6956 56.5839C81.078 57.9444 80.7411 58.4886 80.2661 58.3115C79.8448 58.0963 79.4682 57.8032 79.1561 57.4477" stroke="#263238" stroke-width="0.880843" stroke-miterlimit="10" stroke-linecap="round"/>
<path d="M80.5554 58.3158C80.5554 58.3158 79.8385 59.5035 79.2857 60.2205C78.9678 60.6345 78.5909 60.9998 78.167 61.3045L77.8302 62.475" stroke="#263238" stroke-width="0.880843" stroke-miterlimit="10" stroke-linecap="round"/>
<path d="M47.2562 64.0903C47.2562 64.0903 53.8426 63.9953 54.7021 65.0448C55.5615 66.0943 65.9703 75.6435 67.2271 76.503C68.4839 77.3625 68.756 77.5525 68.756 77.5525C68.756 77.5525 73.9085 65.8913 73.9085 65.3298C73.9085 64.7684 74.7723 62.1813 74.7723 62.1813C74.7723 62.1813 76.3963 62.3713 76.7806 62.3713C77.165 62.3713 78.2102 63.6152 78.2102 63.6152C78.2102 63.6152 76.7806 69.4372 76.7806 70.0936C76.7806 70.7501 74.1072 79.8329 72.8633 82.6187C71.6195 85.4044 69.9048 85.0027 67.1364 84.1433C64.3679 83.2838 56.827 78.9907 56.827 78.9907" stroke="#263238" stroke-width="1.06068" stroke-miterlimit="10" stroke-linecap="round"/>
<path d="M36.1823 100.849C36.1823 100.849 32.36 110.411 31.3278 116.92C30.2956 123.429 30.7361 138.649 30.4381 140.277C30.1401 141.905 26.0025 149.589 26.0025 153.286C26.0025 156.983 23.7869 176.051 23.7869 176.051L25.264 176.936C25.264 176.936 30.4467 160.956 32.36 156.832C34.2733 152.707 36.9425 142.937 37.681 141.015C38.4196 139.094 43.598 123.718 43.8917 121.796C44.1854 119.874 45.9605 115.145 45.9605 115.145C45.9605 115.145 49.8044 138.649 50.5429 143.529C51.2814 148.41 56.4556 174.868 56.4556 174.868C56.7954 174.951 57.1426 175 57.4921 175.014C57.924 175.014 58.0838 174.276 58.0838 174.276C58.0838 174.276 60.1526 155.501 59.5609 150.474C58.9692 145.447 57.1984 139.245 57.1984 137.465C57.1984 135.686 59.8589 120.319 59.8589 115.007C59.8589 109.694 56.4037 100.473 56.4037 100.473C56.4037 100.473 44.1422 106.658 36.1823 100.849Z" fill="#263238"/>
<path d="M57.1423 138.441C57.1423 138.441 55.825 144.082 54.024 147.079" stroke="white" stroke-width="0.530341" stroke-miterlimit="10" stroke-linecap="round"/>
<path d="M56.7838 144.203C56.7838 144.203 55.7041 148.28 53.5446 150.202" stroke="white" stroke-width="0.530341" stroke-miterlimit="10" stroke-linecap="round"/>
<path d="M31.2285 142.402C31.2285 142.402 32.0663 147.321 33.0252 149.36" stroke="white" stroke-width="0.530341" stroke-miterlimit="10" stroke-linecap="round"/>
<path d="M30.9866 145.283C30.9866 145.283 31.7079 148.764 33.0252 150.802" stroke="white" stroke-width="0.530341" stroke-miterlimit="10" stroke-linecap="round"/>
<path d="M46.3449 115.166L51.1432 111.206" stroke="white" stroke-width="0.530341" stroke-miterlimit="10" stroke-linecap="round"/>
<path d="M48.6253 113.486L54.2659 110.964" stroke="white" stroke-width="0.530341" stroke-miterlimit="10" stroke-linecap="round"/>
<path d="M36.2644 106.766C36.2644 106.766 39.9873 109.163 42.1468 111.206" stroke="white" stroke-width="0.530341" stroke-miterlimit="10" stroke-linecap="round"/>
<path d="M23.9424 176.038C23.9424 176.038 18.3277 180.789 18.3277 183.147C18.3277 185.505 20.5433 185.363 22.9101 183.147C25.2769 180.931 25.3979 176.366 25.3979 176.366L23.9424 176.038Z" fill="white" stroke="#263238" stroke-width="1.06068" stroke-miterlimit="10" stroke-linecap="round"/>
<path d="M56.4556 174.868C56.4556 174.868 58.3775 179.597 60.4506 181.67C62.5237 183.743 63.7028 184.477 63.7028 182.257C63.7028 180.037 62.3726 177.528 58.0881 174.276C58.0838 174.276 59.2672 175.161 56.4556 174.868Z" fill="white" stroke="#263238" stroke-width="1.06068" stroke-miterlimit="10" stroke-linecap="round"/>
<path d="M36.6229 43.9639C36.2385 43.8213 35.8757 43.6486 35.4999 43.4888C35.1242 43.329 34.4375 43.2426 34.1783 44.4217C33.7939 46.1493 36.4674 47.5745 35.6079 49.0041C35.0732 49.8738 34.2696 50.5455 33.3189 50.9174C33.1641 50.9706 33.0028 51.0026 32.8394 51.0124C32.075 51.1074 30.8354 51.0124 31.2155 52.347C31.5956 53.6816 32.8394 54.8304 33.6039 54.8304H34.3684C34.3684 54.8304 35.2322 57.4218 38.4714 58.8384C41.7106 60.255 43.9133 60.1773 44.6777 58.3633C45.4422 56.5493 46.0166 55.0204 46.0166 52.632C46.0166 50.2437 45.1528 46.2356 45.1528 46.2356C45.1528 46.2356 44.3884 47.2895 41.4299 45.9506C39.4734 45.0652 37.6421 44.3483 36.6229 43.9639Z" fill="white"/>
<g style="mix-blend-mode:multiply" opacity="0.5">
<path d="M41.4342 45.9506C41.4342 45.9506 36.869 45.6958 36.1866 45.8081C35.5043 45.9204 36.2989 47.9676 36.0744 50.0148C35.8498 52.0619 35.9577 55.3616 36.869 56.3852C37.9444 57.4407 39.0839 58.4287 40.281 59.3437C40.281 59.3437 36.7783 58.7779 35.5043 57.2965C34.2302 55.8151 34.0272 55.0204 34.0272 55.0204C34.0272 55.0204 31.0687 53.2928 30.8398 51.9496C30.6109 50.6064 32.5673 51.3191 33.5046 50.654C34.0315 50.2912 36.2126 49.6088 35.664 47.7905C35.1155 45.9722 34.2302 45.631 34.1956 44.413C34.1697 43.5493 34.9298 43.2987 35.3963 43.221C35.6066 43.1856 35.8227 43.2173 36.0139 43.3117L41.4342 45.9506Z" fill="#92E3A9"/>
</g>
<path d="M36.6229 43.9639C36.2385 43.8213 35.8757 43.6486 35.4999 43.4888C35.1242 43.329 34.4375 43.2426 34.1783 44.4217C33.7939 46.1493 36.4674 47.5745 35.6079 49.0041C35.0732 49.8738 34.2696 50.5455 33.3189 50.9174C33.1641 50.9706 33.0028 51.0026 32.8394 51.0124C32.075 51.1074 30.8354 51.0124 31.2155 52.347C31.5956 53.6816 32.8394 54.8304 33.6039 54.8304H34.3684C34.3684 54.8304 35.2322 57.4218 38.4714 58.8384C41.7106 60.255 43.9133 60.1773 44.6777 58.3633C45.4422 56.5493 46.0166 55.0204 46.0166 52.632C46.0166 50.2437 45.1528 46.2356 45.1528 46.2356C45.1528 46.2356 44.3884 47.2895 41.4299 45.9506C39.4734 45.0652 37.6421 44.3483 36.6229 43.9639Z" stroke="#263238" stroke-width="1.06068" stroke-miterlimit="10" stroke-linecap="round"/>
<path d="M39.996 49.6217C40.0564 49.9845 39.9571 50.3041 39.7714 50.3344C39.5857 50.3646 39.3956 50.0925 39.3395 49.7297C39.2833 49.3669 39.3827 49.043 39.5641 49.0127C39.7455 48.9825 39.9355 49.2762 39.996 49.6217Z" fill="#263238"/>
<path d="M43.9478 48.9609C44.004 49.3237 43.9046 49.6433 43.7232 49.6736C43.5419 49.7038 43.3475 49.4317 43.2914 49.0689C43.2352 48.7061 43.3302 48.3865 43.5116 48.3563C43.693 48.326 43.8874 48.5981 43.9478 48.9609Z" fill="#263238"/>
<path d="M37.7069 47.8596C37.9486 47.5004 38.2764 47.2074 38.6604 47.0075C39.0444 46.8075 39.4724 46.707 39.9053 46.7151" stroke="#263238" stroke-width="1.06068" stroke-miterlimit="10" stroke-linecap="round"/>
<path d="M42.8638 47.0001C43.2306 46.8719 43.6278 46.8581 44.0027 46.9607C44.3775 47.0633 44.7123 47.2774 44.9628 47.5745" stroke="#263238" stroke-width="1.06068" stroke-miterlimit="10" stroke-linecap="round"/>
<path d="M42.4837 48.624C42.4309 49.2275 42.4309 49.8345 42.4837 50.438C42.5787 51.2025 43.1488 51.3925 42.9588 51.9669C42.7688 52.5413 42.0043 52.537 42.0043 52.537" stroke="#263238" stroke-width="1.06068" stroke-miterlimit="10" stroke-linecap="round"/>
<path d="M41.0498 54.8304C40.7227 54.9077 40.3828 54.9133 40.0533 54.847C39.7238 54.7806 39.4125 54.6439 39.1408 54.446" stroke="#263238" stroke-width="1.06068" stroke-miterlimit="10" stroke-linecap="round"/>
</svg>
